<svg xmlns="http://www.w3.org/2000/svg" viewBox="0 0 500 500"><g id="freepik--Floor--inject-48"><ellipse id="freepik--floor--inject-48" cx="250" cy="356.71" rx="212.28" ry="116.69" style="fill:#f5f5f5"></ellipse></g><g id="freepik--Shadow--inject-48"><ellipse id="freepik--shadow--inject-48" cx="130.36" cy="323.07" rx="43.79" ry="25.28" style="fill:#e6e6e6"></ellipse><ellipse id="freepik--shadow--inject-48" cx="356.54" cy="406.28" rx="52.42" ry="30.27" style="fill:#e6e6e6"></ellipse><path id="freepik--shadow--inject-48" d="M142.78,304.18l30,17.36a5.21,5.21,0,0,0,4.71,0l42.65-24.62c1.3-.75,1.3-2,0-2.72l-30-17.36a5.21,5.21,0,0,0-4.71,0l-42.64,24.62C141.48,302.21,141.48,303.43,142.78,304.18Z" style="fill:#e6e6e6"></path></g><g id="freepik--Luggage--inject-48"><g id="freepik--luggage--inject-48"><polygon points="197.13 208.2 197.13 160.82 200.29 159 200.29 206.37 197.13 208.2" style="fill:#455a64"></polygon><polygon points="193.97 159 193.97 210.02 197.13 208.2 197.13 160.82 193.97 159" style="fill:#263238"></polygon><polygon points="178.25 219.1 175.09 217.31 194.04 206.37 197.13 208.2 178.25 219.1" style="fill:#37474f"></polygon><polygon points="175.09 220.93 175.09 173.55 178.25 171.73 178.25 219.1 175.09 220.93" style="fill:#455a64"></polygon><polygon points="171.94 171.73 171.94 222.75 175.09 220.93 175.09 173.55 171.94 171.73" style="fill:#37474f"></polygon><path d="M196.33,155.2a2.38,2.38,0,0,0-2.49.24l-18.54,10.7a7.19,7.19,0,0,0-3.36,5.59v3.65l3.16,1.82,25.19-14.63,0-3.63a2.11,2.11,0,0,0-.81-1.9C198.94,156.67,196.86,155.53,196.33,155.2Z" style="fill:#261E68"></path><path d="M175.09,173.55a7.22,7.22,0,0,1,3.37-5.59L197,157.26c1.86-1.07,3.35-.32,3.33,1.68l0,3.63L175.1,177.2S175.09,175.57,175.09,173.55Z" style="fill:#261E68"></path><path d="M175.09,173.55a7.22,7.22,0,0,1,3.37-5.59L197,157.26c1.86-1.07,3.35-.32,3.33,1.68l0,3.63L175.1,177.2S175.09,175.57,175.09,173.55Z" style="opacity:0.2"></path><path d="M176.05,170.46a6.29,6.29,0,0,0-1,3.09v3.65l-3.15-1.82v-3.66a6.27,6.27,0,0,1,.95-3.08Z" style="opacity:0.4"></path><path d="M227.18,212.23,210,202.34a2.36,2.36,0,0,0-2.38-.23h0l-41.21,23.81,23.45,93.62L231,295.83a2.35,2.35,0,0,0,1-2.17V220.49A10.59,10.59,0,0,0,227.18,212.23Z" style="fill:#261E68"></path><path d="M227.18,212.23,210,202.34a2.36,2.36,0,0,0-2.38-.23h0l-41.21,23.81,23.45,93.62L231,295.83a2.35,2.35,0,0,0,1-2.17V220.49A10.59,10.59,0,0,0,227.18,212.23Z" style="opacity:0.2"></path><path d="M169,308.61l18.53,10.7c1.85,1.06,3.37.19,3.37-1.95V244.19a10.56,10.56,0,0,0-4.77-8.25L169,226c-1.86-1.06-3.37-.19-3.37,2v74.78A7.49,7.49,0,0,0,169,308.61Z" style="fill:#261E68"></path><path d="M169,308.61l18.53,10.7c1.85,1.06,3.37.19,3.37-1.95V244.19a10.56,10.56,0,0,0-4.77-8.25L169,226c-1.86-1.06-3.37-.19-3.37,2v74.78A7.49,7.49,0,0,0,169,308.61Z" style="opacity:0.4"></path><path d="M181.9,312a13.33,13.33,0,0,0-6-10.44c-1.74-1-3.31-1.05-4.41-.31h0l-4.07,2.32L176,318.3l4-2.31v0C181.2,315.36,181.9,314,181.9,312Z" style="fill:#455a64"></path><path d="M171.65,304a13.33,13.33,0,0,1,6,10.45c0,3.84-2.7,5.4-6,3.48a13.33,13.33,0,0,1-6-10.45C165.62,303.67,168.32,302.11,171.65,304Z" style="fill:#37474f"></path><path d="M171.65,308.34a5.08,5.08,0,0,1,2.3,4c0,1.46-1,2.06-2.3,1.33a5.09,5.09,0,0,1-2.29-4C169.36,308.2,170.38,307.61,171.65,308.34Z" style="fill:#263238"></path><path d="M184.57,317.6l3.26,1.91a2.1,2.1,0,0,0,2.11,0l5.26-3v-3.71a.75.75,0,0,0-1.13-.65L190.88,314l-5.18-3a.75.75,0,0,0-1.13.65Z" style="fill:#37474f"></path><path d="M190.89,317.36V314h0l-5.18-3a.75.75,0,0,0-1.13.65v6h0l2.93,1.7a2.61,2.61,0,0,0,2,.37,2.67,2.67,0,0,0,.36-.14A2.37,2.37,0,0,0,190.89,317.36Z" style="fill:#263238"></path><path d="M231,295.83a2.35,2.35,0,0,0,1-2.17v-3.4h0l-3.37,1.95a1.9,1.9,0,0,0-.95,1.65v3.91Z" style="fill:#37474f"></path><path d="M190.89,266.55c17.37-20.26,30.7-27,41.05-23.71V239.2c-10.35-3.25-23.68,3.44-41.05,23.7Z" style="fill:#261E68"></path><path d="M229.92,214.83l-41.06,23.71a9,9,0,0,0-2.74-2.6L169,226a2.44,2.44,0,0,0-2.22-.3l40.89-23.63a2.38,2.38,0,0,1,2.38.23l17.14,9.89A9.11,9.11,0,0,1,229.92,214.83Z" style="fill:#261E68;opacity:0.30000000000000004"></path><path d="M213,211.09a4.36,4.36,0,0,0-3.95,0l-2,1.14v.65l3.95,2.28,2-1.14a1.39,1.39,0,0,0,.82-1.15v-.64A1.39,1.39,0,0,0,213,211.09Z" style="fill:#263238"></path><path d="M207,212.23l2-1.14a4.36,4.36,0,0,1,3.95,0,1.2,1.2,0,0,1,0,2.28l-2,1.14Z" style="fill:#455a64"></path><polygon points="210.98 211.41 210.98 214.51 207.03 212.23 207.03 209.13 210.98 211.41" style="fill:#37474f"></polygon><polygon points="191.22 222.86 210.98 211.41 207.03 209.13 187.27 220.53 191.22 222.86" style="fill:#455a64"></polygon><polygon points="187.27 223.64 187.27 220.53 191.22 222.86 191.22 225.92 187.27 223.64" style="fill:#37474f"></polygon><path d="M191.21,225.92l-4-2.28-2,1.14a1.39,1.39,0,0,0-.81,1.13v.67a1.39,1.39,0,0,0,.81,1.13,4.36,4.36,0,0,0,3.95,0l2-1.14Z" style="fill:#263238"></path><path d="M187.27,223.64l-2,1.14a1.2,1.2,0,0,0,0,2.28,4.36,4.36,0,0,0,4,0l2-1.14Z" style="fill:#455a64"></path><polygon points="191.86 222.48 191.86 226.2 191.21 226.57 191.21 222.86 191.86 222.48" style="fill:#263238"></polygon><polygon points="210.98 211.41 210.98 215.15 210.32 215.53 210.32 211.78 210.98 211.41" style="fill:#263238"></polygon><polygon points="191.21 223.64 210.98 212.19 210.98 211.41 191.21 222.86 191.21 223.64" style="fill:#263238"></polygon><polygon points="210.33 215.53 210.33 212.57 207.77 214.05 210.33 215.53" style="fill:#37474f"></polygon></g></g><g id="freepik--Plane--inject-48"><g id="freepik--plane--inject-48"><path d="M339.27,74.8l-42.36-20,2.08-1.1,40.13,6.67L343.63,58a3.3,3.3,0,0,1,3,.13c.81.51.8,1.28,0,1.72l-2.77,1.46,15.53,3.25Z" style="fill:#261E68"></path><path d="M339.27,74.8l-42.36-20,2.08-1.1,40.13,6.67L343.63,58a3.3,3.3,0,0,1,3,.13c.81.51.8,1.28,0,1.72l-2.77,1.46,15.53,3.25Z" style="opacity:0.4"></path><path d="M354.12,60.82c13.34-7.56,27.59-15.25,39.41-12,8.11,2.26-4.57,12.51-25.76,23.75L349,81.69c-18.79,8.44-38.1,15.71-38.1,15.71l.87,13-1.87,1L301.47,102s-4.71,2.25-7.34.6,1.68-4.17,1.68-4.17l-15.44-5.67,1.88-1,22.37,1.65S318.89,83,335.15,73C335.15,73,340.79,68.38,354.12,60.82Z" style="fill:#261E68"></path><path d="M378.4,79.42l-4.52,2.38,11.51,26.65-2.08,1.1-35.71-30L368.31,69l4.38,10,2.77-1.46a3.27,3.27,0,0,1,3,.13C379.25,78.21,379.23,79,378.4,79.42Z" style="fill:#261E68"></path><path d="M378.4,79.42l-4.52,2.38,11.51,26.65-2.08,1.1-35.71-30L368.31,69l4.38,10,2.77-1.46a3.27,3.27,0,0,1,3,.13C379.25,78.21,379.23,79,378.4,79.42Z" style="opacity:0.4"></path></g></g><g id="freepik--character-2--inject-48"><g id="freepik--Character--inject-48"><path d="M142.92,128.32c-1.23-4.24-3.78-6.92-17.53-7.47s-27,1.63-31.2,7.33c-2.84,3.88-5.57,13.78-2.79,14.51s44.49-.42,48.82-2.91S142.92,128.32,142.92,128.32Z" style="fill:#261E68"></path><path d="M108,130.37a8.52,8.52,0,0,0-7.64-1.55c-4.26,1.35-7.71,5.06-8.93,14.92s-.86,40.18,1.43,46.26,10.7,8.9,20.81,8.1,25.57-3.23,30.41-8.1.61-52.39-2.48-60.17Z" style="fill:#261E68"></path><path d="M108,130.37a8.52,8.52,0,0,0-7.64-1.55c-4.26,1.35-7.71,5.06-8.93,14.92s-.86,40.18,1.43,46.26,10.7,8.9,20.81,8.1,25.57-3.23,30.41-8.1.61-52.39-2.48-60.17Z" style="opacity:0.2"></path><g id="freepik--character--inject-48"><path d="M102.55,271.77c.18-8.82,2.84-15.37,3-17.82,0,0-.65-52.5-.65-61l44.76-1.82s-.62,52.63-.62,59.92-1.09,38.32-2.25,52.6h0l-.13,4.69-10,3.11a73.44,73.44,0,0,0,0-8c-.19-6.66-4.68-29.74-5.1-35.6-.54-7.58.67-10.65.52-15.71S129,213.87,129,213.87s-5.6,32.56-7,43.62c-1.6,12.67-6.73,45.87-6.74,53.59,0,1.38,0,3,0,4.72,0,4.18-.11,5.28.56,6.89,1.17,2.83-8.84,4.61-9.31,2.6l-1.07-8.3v-.24h0v-5.26C105.45,303.62,102.28,284.57,102.55,271.77Z" style="fill:#ffa8a7"></path><path d="M166.26,321.43a3.39,3.39,0,0,1-.14,2.47c-.35.72-4.12,2.85-9.22,2.51a21.37,21.37,0,0,1-10.54-3.68c-1.94-1.29-4-1.53-6.49-1.68s-5.83-1.4-6.39-2.58a5.59,5.59,0,0,1,.09-3.21Z" style="fill:#37474f"></path><path d="M145.69,305.52l.41-.08a1.69,1.69,0,0,1,.67,0,1.35,1.35,0,0,1,.63.43,12,12,0,0,1,1.3,2c1.07,1.74,3.31,3.19,5.76,4.5,1.66.9,3.29,1.59,5,2.37s4.08,1.27,5.46,2.19c2,1.35,2.25,4.73,0,6.07-2,1.16-7.14,2.41-12.57.87-3-.84-6.23-4-10.11-4.3-2.46-.19-7.13-.88-8.71-2.76-.59-.83.19-3.46.84-5.73.7-2.48,1.54-6.37,2.36-6.15,0,.49-.06.61.26.94s.71.51,1,.8a6.47,6.47,0,0,1,1.37,2,1.45,1.45,0,0,0,.7.76c.41.15.72-.11,1.09-.27a2.13,2.13,0,0,1,1.47-.11,9.12,9.12,0,0,0-.26-1.46.94.94,0,0,1,0-.47.77.77,0,0,1,.32-.35A7.9,7.9,0,0,1,145.69,305.52Z" style="fill:#455a64"></path><path d="M125.53,335.87a4.08,4.08,0,0,1-.12,2.74c-.36.56-2.4,2.31-6.11,2.57-3.54.26-6.7-.22-8.78-1.54s-3.09-2.78-3.28-4.79,0-4-.94-5.52-2.3-3.05-2.61-3.82a7.84,7.84,0,0,1,0-4.11Z" style="fill:#37474f"></path><path d="M115.84,318.26a7.83,7.83,0,0,0,.41,2.24,20.07,20.07,0,0,0,2.17,4.44A17.82,17.82,0,0,0,119.9,327c1.07,1.28,2.4,2.32,3.53,3.54a7.31,7.31,0,0,1,2.19,4.35c.15,2.78-2.87,3.72-5.19,4.13a17,17,0,0,1-7.54-.37,6.94,6.94,0,0,1-5.08-5.54c-.13-.77-.08-1.56-.17-2.33a10.87,10.87,0,0,0-2.16-4.86,15.26,15.26,0,0,1-1.66-2.65c-.72-1.72-.14-3.65.32-5.36.4-1.48.85-3.15,1.38-3,0,.76,0,.84.54,1.36.7.66.73,1.65,1.46,2.23a10.34,10.34,0,0,1-.51-2,1.12,1.12,0,0,1,.15-.78,2.14,2.14,0,0,1,.86-.46,17.53,17.53,0,0,1,3.37-.77,10.38,10.38,0,0,1,3.29,0,1.46,1.46,0,0,1,.83.48,1.62,1.62,0,0,1,.29.95C115.85,316.37,115.82,317.52,115.84,318.26Z" style="fill:#455a64"></path><path d="M118.79,325.52c-1-.77-3.35-.78-4.62-.65a7.68,7.68,0,0,0-3.6,1.27.83.83,0,0,1-1.06-.09h0a.77.77,0,0,1,.08-1.18,7.76,7.76,0,0,1,4-1.5c3.12-.22,4,.31,4,.31S119.1,324.6,118.79,325.52Z" style="fill:#f5f5f5"></path><path d="M121.17,328.37c-1.3-.77-3.85-.66-5.11-.53a7.21,7.21,0,0,0-3.51,1.34.83.83,0,0,1-1.06-.09h0a.77.77,0,0,1,.08-1.18,8.07,8.07,0,0,1,4.14-1.62c3.12-.22,3.93.42,3.93.42A2.57,2.57,0,0,1,121.17,328.37Z" style="fill:#f5f5f5"></path><path d="M112.4,320.39a7.67,7.67,0,0,1,3.92.32c.55.31.91,1.18.56,1.4a7.33,7.33,0,0,0-3.47-.48,10.32,10.32,0,0,0-3.38.93c-.26.12-.58.28-.86.44a.74.74,0,0,1-1-.32h0a.69.69,0,0,1,.27-.89A9.9,9.9,0,0,1,112.4,320.39Z" style="fill:#f5f5f5"></path><path d="M152.16,311a2.32,2.32,0,0,0-1.83-1.22c-1.12-.21-3.1.62-4.33,1.64a.92.92,0,0,0,.13,1.52h0a.92.92,0,0,0,1.05-.12A7.07,7.07,0,0,1,152.16,311Z" style="fill:#f5f5f5"></path><path d="M155.63,313a2.62,2.62,0,0,0-2.15-1.11,8.21,8.21,0,0,0-4.75,1.77.9.9,0,0,0,.13,1.47h0a.88.88,0,0,0,1-.11A7,7,0,0,1,155.63,313Z" style="fill:#f5f5f5"></path><path d="M159.47,314.74a2.93,2.93,0,0,0-2.24-1,7.86,7.86,0,0,0-4.54,1.79.9.9,0,0,0,.12,1.47h0a.88.88,0,0,0,1-.11A6.73,6.73,0,0,1,159.47,314.74Z" style="fill:#f5f5f5"></path><path d="M149.71,191.11s.6,37.08.67,43.59,0,19,0,25.39c0,0-1.65,2.78-11.06,2.77s-10.77-2.61-10.77-2.61l-1.39-30-2.59,31.14a16.87,16.87,0,0,1-13.15,2.52c-7.75-1.67-8.89-4-8.89-4l1.52-68.71Z" style="fill:#261E68"></path><path d="M149.71,191.11s.6,37.08.67,43.59,0,19,0,25.39c0,0-1.65,2.78-11.06,2.77s-10.77-2.61-10.77-2.61l-1.39-30-2.59,31.14a16.87,16.87,0,0,1-13.15,2.52c-7.75-1.67-8.89-4-8.89-4l1.52-68.71Z" style="fill:#fff;opacity:0.6000000000000001"></path><path d="M127.16,230.27l1.38-12.59s6.46-1.57,10.78-4.82a20.43,20.43,0,0,1-4.91,4.3c-2.62,1.47-3.87,2.08-3.87,2.08l-1.89,12.18-.33,23.74Z" style="opacity:0.1"></path><path d="M103.48,197.53c6.15,4.48,34,9.44,46.92,0,0,0-.3-36.1-1.31-55.21-.05-.87-.11-1.71-.19-2.53,0-.27-.07-.54-.1-.81a26.43,26.43,0,0,0-.66-3.39c0-.18-.1-.36-.16-.55-.13-.41-.26-.82-.42-1.21-.09-.21-.18-.43-.28-.63s-.17-.38-.27-.57a.47.47,0,0,0,0-.1c-.1-.19-.21-.37-.31-.54s-.23-.39-.37-.58-.25-.36-.37-.52a6.06,6.06,0,0,0-.47-.54,5.56,5.56,0,0,0-.47-.5l-.34-.31a2.3,2.3,0,0,0-.34-.28,5.63,5.63,0,0,0-.46-.36,11.31,11.31,0,0,0-1.63-1l-.48-.22-.12,0-.58-.22a9,9,0,0,0-1-.32l-1.08-.28-1.38,0-1,0-1.1,0c-4.83.22-11.77,1-17.33,1.71l-1.1.15-1,.11c-3.82.5-6.66.92-7.09,1h-.06c-1.25.31-2.41.61-3.34.89-2.56.75-.66.11-1.22,2.58-1.65,7.25.27,33.62.27,33.62Z" style="fill:#f5f5f5"></path><path d="M194.05,94c-6-3.77-7.25-1.47-6.64,4a24.57,24.57,0,0,1-.11,6.9,12.26,12.26,0,0,0-1.65-3,2.42,2.42,0,0,0-3.2-.76c-.43.31.42,1.31.82,3.39.51,2.68,0,4.34,1.26,7a4.64,4.64,0,0,1,.24,3.22c-1.5,5.43-5.46,12.87-9.85,20.65-7-1.94-13.93-4.39-21.31-6.47-11.39-3.21-15-2.22-17.82.8l4.06,11.53L176.34,150c2.86.78,6.63-.17,8-2.78,4-7.44,7-17.38,9.23-25.07,1.35-4.57,2.48-8.74,3.2-11.62C199.28,100.53,197.79,96.33,194.05,94Z" style="fill:#ffa8a7"></path><path d="M136.54,126.84c4.34-.49,7.91-1,14.57.72s23.44,7.18,23.44,7.18l8.59-15.4a16.55,16.55,0,0,0,10.57,2.43A195.82,195.82,0,0,1,188,141.29c-2.85,7.39-4.33,9.61-6.44,10.24s-35.28-7-35.28-7Z" style="fill:#37474f"></path><path d="M103.48,197.53c6.15,4.48,34,9.44,46.92,0,0,0-.3-36.1-1.31-55.21-.05-.87-.11-1.71-.19-2.53,0-.27-.07-.54-.1-.81a26.43,26.43,0,0,0-.66-3.39c0-.18-.1-.36-.16-.55-.13-.41-.26-.82-.42-1.21-.09-.21-.18-.43-.28-.63s-.17-.38-.27-.57a.47.47,0,0,0,0-.1c-.1-.19-.21-.37-.31-.54s-.23-.39-.37-.58-.25-.36-.37-.52a6.06,6.06,0,0,0-.47-.54,5.56,5.56,0,0,0-.47-.5l-.34-.31a2.3,2.3,0,0,0-.34-.28,5.63,5.63,0,0,0-.46-.36,11.31,11.31,0,0,0-1.63-1l-.48-.22-.12,0-.58-.22a9,9,0,0,0-1-.32l-1.08-.28-1.38,0-1,0-1.1,0c-4.83.22-11.77,1-17.33,1.71l-1.1.15-1,.11c-3.82.5-6.66.92-7.09,1h-.06c-1.25.31-2.41.61-3.34.89-2.56.75-.66.11-1.22,2.58-1.65,7.25.27,33.62.27,33.62Z" style="fill:#455a64"></path><path d="M91.09,173c3.54-35,6.76-41.67,16.88-42.63,3.33,3.21,3.24,12.39.37,17.9,0,0-4.3,14.69-5.81,27.1-.85,7-2.64,21.45-1.9,27.32a4.3,4.3,0,0,0,1.46,2.68c2.12,1.85,2.31,3.51,3.78,5.65,1.16,1.68,2.28,2.23,2,2.66a2.32,2.32,0,0,1-3.1.57,12.06,12.06,0,0,1-2.61-2,23.71,23.71,0,0,0,2.56,6.1c2.65,4.58,2.4,7.09-4.28,6.08-4.19-.63-7.11-3.75-8.78-13.46a103.55,103.55,0,0,1-1.27-10.82A178.07,178.07,0,0,1,91.09,173Z" style="fill:#ffa8a7"></path><path d="M108.92,129.83s-5.76.55-7.91,1.92c-3.34,2.13-4.88,6.44-6.49,13.43S90,165.61,89.35,171.07s.17,21.69.17,21.69a13.15,13.15,0,0,0,11.81.33s1.58-15.53,2.15-20.09c.46-3.62,3.26-15.85,4.81-19.5C108.29,153.5,113.29,139.17,108.92,129.83Z" style="fill:#37474f"></path><path d="M123.54,98.3A12.26,12.26,0,1,0,135.79,86,12.24,12.24,0,0,0,123.54,98.3Z" style="fill:#263238"></path><path d="M114.61,107s2,9.33,2.78,10.87a4.25,4.25,0,0,0,2.44,2l-.14-6.57Z" style="fill:#263238"></path><path d="M117.1,93.64A4.63,4.63,0,0,0,113.29,95c-1.63,1.68-.72,6.91,1.32,12l3.74.43Z" style="fill:#263238"></path><path d="M119.47,107.45c-.75.44-1.82-1-2.75-2s-3.94-2.29-5.45.89,1.33,7.51,3.71,8.25c4.1,1.29,4.71-1.34,4.71-1.34l.28,15.07c4.29,7.77,18.81,3.79,13.37-1.36v-3.82a25.66,25.66,0,0,0,5.52.29c3-.47,4.91-2.85,5.82-6.11,1.47-5.24,2-9.47.78-19.77-1.36-11.3-14.5-11.41-21.59-7S119.47,107.45,119.47,107.45Z" style="fill:#ffa8a7"></path><path d="M117.72,87.47a36,36,0,0,1,7.74-2.33c5.73-1.24,11.57-2.39,16.8-5a3.57,3.57,0,0,1,2.05-.59c1.38.18,2,1.85,2,3.24a11.42,11.42,0,0,1-.5,3.81,2.19,2.19,0,0,1,3.08.05,3.76,3.76,0,0,1,.89,3.22,8,8,0,0,1-4.62,5.84,18.32,18.32,0,0,1-7.55,1.5,52,52,0,0,1-10.79-.82,8,8,0,0,0-2.61-.19,2.37,2.37,0,0,0-2,1.55c-.39,1.43-.78,11.13-2.77,11.17-.38,0-1.79-2.44-2.71-3.31-1.16-1.09-2.32-9.4-2.53-10.94a.67.67,0,0,0-.15-.32c-1.31-1.83.22-4.91,1.83-5.91A16.34,16.34,0,0,1,117.72,87.47Z" style="fill:#263238"></path><path d="M133.33,123.17s-6.73-1.35-9.08-2.6a7.73,7.73,0,0,1-3.25-3.22,10.65,10.65,0,0,0,1.84,3.8c1.72,2.19,10.49,3.81,10.49,3.81Z" style="fill:#f28f8f"></path><path d="M131.71,105.76a1.35,1.35,0,1,1-1.35-1.4A1.37,1.37,0,0,1,131.71,105.76Z" style="fill:#263238"></path><path d="M130.28,100.67l-2.88,1.6a1.72,1.72,0,0,1,.67-2.3A1.61,1.61,0,0,1,130.28,100.67Z" style="fill:#263238"></path><path d="M132.72,115.08l3.07,1.15a1.61,1.61,0,0,1-2.09,1A1.71,1.71,0,0,1,132.72,115.08Z" style="fill:#f28f8f"></path><path d="M143.73,101.8l-2.63-2a1.6,1.6,0,0,1,2.29-.35A1.75,1.75,0,0,1,143.73,101.8Z" style="fill:#263238"></path><path d="M142.92,105.38a1.37,1.37,0,0,1-1.35,1.4,1.39,1.39,0,0,1-1.35-1.41,1.35,1.35,0,1,1,2.7,0Z" style="fill:#263238"></path><polygon points="136.05 104.1 136.5 112.21 140.73 110.77 136.05 104.1" style="fill:#f28f8f"></polygon></g><path d="M110.84,129.55s3.15,6.86,1.61,19.39-8,23.81-8,23.81l-.27,7.45s7.53-5.33,12.39-18.11,3.54-26.18,1.59-33.51A8.62,8.62,0,0,0,110.84,129.55Z" style="fill:#261E68"></path><path d="M110.84,129.55s3.15,6.86,1.61,19.39-8,23.81-8,23.81l-.27,7.45s7.53-5.33,12.39-18.11,3.54-26.18,1.59-33.51A8.62,8.62,0,0,0,110.84,129.55Z" style="opacity:0.4"></path><path d="M134.21,126.94c4.42,2.46,16.2,13,15.87,47.59,0,0,5.36-12.25,2-28.6-2.66-12.84-7.26-17.67-10.48-19.4C141.57,126.53,136,124.86,134.21,126.94Z" style="fill:#261E68"></path><path d="M134.21,126.94c4.42,2.46,16.2,13,15.87,47.59,0,0,5.36-12.25,2-28.6-2.66-12.84-7.26-17.67-10.48-19.4C141.57,126.53,136,124.86,134.21,126.94Z" style="opacity:0.4"></path></g></g><g id="freepik--character-1--inject-48"><g id="freepik--character--inject-48"><path d="M298.08,180.62c1-5.56-.32-11-3.62-16.45s-8.34-14.66-7.11-19.72a10.29,10.29,0,0,0-12,.28c-6.31,4.51-.73,11.28-1.91,13.06s-9.75-1.08-11,6.38,9.14,10.66,6.95,13.2-1.59,8,.54,9.4a5.86,5.86,0,0,1,5.9-3C279.93,184.35,296.45,192.57,298.08,180.62Z" style="fill:#261E68"></path><path d="M283.06,178.06c-5-1.07-15.71-4.8-19-7.88,2.53,3.44,6.84,5.47,5.36,7.19a4.84,4.84,0,0,0-.77,1.25c2.57-2.25,15.52,2.49,19.1,2.27S288,179.13,283.06,178.06Z" style="opacity:0.07"></path><path d="M285.6,168.81c-3.23-3-12.5-16.41-13-20.34-1.11,3.88,1.77,8,.89,9.32-.58.89-3,.63-5.44,1.06L268,159a26.34,26.34,0,0,1,8,3.75C280.16,165.64,288.83,171.8,285.6,168.81Z" style="opacity:0.07"></path><g id="freepik--character--inject-48"><path d="M373,206.57c5-1.12,12.27,1.58,15.4,9.5s10.36,28,10.6,33.38c.26,5.63-17.59,23-16.95,22.7.2-.09-5.69-10.25-5.69-10.25l8.85-13.26L380,234.06Z" style="fill:#ffa8a7"></path><path d="M383.88,391.61c.68.26.78,2.49.85,5.06,0,1.95.42,5.36-1.87,6s-5.63.26-7.07-1.6c-1.79-2.31-3-4.35-5.57-7.18-2.23-2.45-4.64-4.75-5.51-8.16-.79-3.09-.08-4.42,2-5.28,2.9-1.19,7.06,1.06,9.63,3.54C377.83,385.41,383.21,391.34,383.88,391.61Z" style="fill:#263238"></path><path d="M376,385.65c-.93-1.37-3.67-3.34-5.26-2.88l-.06,0c-2.18.63-1.79,3.43-.15,5.19s5.66,5.6,5.66,5.6l1.9-4.87Z" style="fill:#ffa8a7"></path><path d="M358.68,408.43c1,0,1.44,3.26,1.62,5.77.15,1.95.88,5.12.2,6.55s-3.32,2.33-7.36,2.24c-2.63-.05-6.73,1.68-9.55,3.2s-6,1.54-9.1,1.14c-3.6-.47-7.3-2.6-7.86-4.1s.19-2.21,8.73-5.72c.07,0,9-3.92,13.17-8.4Z" style="fill:#263238"></path><path d="M335.36,417.51l-3.1,1.3c-.24.81.07,2.09,3.84,2.72,5.75,1,20.68-9.46,20.68-9.46s-.46-1.63-.91-3l-7.34.06C344.36,413.59,335.43,417.48,335.36,417.51Z" style="fill:#ffa8a7"></path><path d="M387.48,346.47A73.94,73.94,0,0,0,384,330s2-14,3.17-27.39c2.17-24.06.78-32-3.81-42.82,0,0-40.72-4.56-43.73,12-3.71,20.39.81,58.74,2.08,68.89.92,7.36,1.69,11.32,3.44,27.28,1.3,11.85,4.53,38.18,3.41,41.1-.78,2,4.43,5.46,7.63,3.38,1.27-.83,2.35-1.4,2.62-2.52-1-10.05,4.48-37.19,4.48-45.66,0-13-1.76-19.22-1.76-19.22s2.16-34.31,3-39.72c0,0,1.13,10.83,1.59,18.22s1.79,14.32,4.1,28c1.86,11,5.45,34.56,6,42,3.8,3.91,7.39,1.57,7.68-.27C384,383.76,388.63,356.49,387.48,346.47Z" style="fill:#ffa8a7"></path><polygon points="354.47 202.4 356.17 218.04 369.91 216.98 368.57 199.63 354.47 202.4" style="fill:#ffa8a7"></polygon><path d="M381.27,263.45c-1.5-3.24-3-14.53-3-14.53l0-3.42c4.43-14.6,5.29-20.27,5.06-27.76-.14-4.38-5.28-12.06-10.57-11.15-1.38.24-2.38.3-3.68.54-.17,3.6-7.17,4.64-13.9,2.37a56,56,0,0,0-6,1.47c-2.45.91-9.34,13.91-10.12,22.08-.65,6.63,4.53,11,4.53,11l1.9,8.48c-1,4.78-2.82,10.26-4.09,20.35,0,0,5.64,9.05,25.8,6.79,17.94-2,20.24-9.68,20.24-9.68S382.31,265.7,381.27,263.45Z" style="fill:#455a64"></path><path d="M288.6,199.05c1.15,2.17,13.78,27.47,18.47,28s39.1,2.07,39.1,2.07c9.88,4.21,9.09-14.29,4.76-18.63a53.1,53.1,0,0,0-11.36.84c-8.31,1.37-27.08,3-27.08,3-2.55-3.53-5.46-6.8-8.18-10.2-2.45-3.06-6.3-6.79-5.22-11a29.83,29.83,0,0,0,.92-5.2c.1-4.88-2.09-6.35-2.23-5.82a8.1,8.1,0,0,1-1.19,2.43c-1.9,2.36-3.1-.46-3.16-1.38-.22-3.08,1.29-7.36-1-7.9a6,6,0,0,0-3.2.41c-5.12,2.2-6.37,6.06-5.22,11.41A38.81,38.81,0,0,0,288.6,199.05Z" style="fill:#ffa8a7"></path><path d="M344.33,166.63c4-4.19,14.17-6.81,22.34-2.47l-1.39.31a45.61,45.61,0,0,1,4.53,1c5.2,1.47,11.46,7.18,12,17.2.4,7.73-20.24,13.07-19.81,18.37l-11.82-14.22C339.85,182.62,340.2,171,344.33,166.63Z" style="fill:#263238"></path><path d="M344,185.36s-3,4.65-2.58,5.13a7.35,7.35,0,0,0,2.35,1Z" style="fill:#f28f8f"></path><path d="M353.13,170.63c-2.94,1.57-8,4.47-9.19,15.4-1.19,11.22,1.36,15.08,2.9,16.53,1.05,1,6.37,1.26,9.13.36,3.46-1.13,10.93-4.95,14.37-10.78,4.06-6.86,4.79-15.94,0-19.42C363.48,167.81,355.62,169.3,353.13,170.63Z" style="fill:#ffa8a7"></path><path d="M390,186.5a6,6,0,0,0-3.68-5.53,4.94,4.94,0,0,0,.68-2.47,5,5,0,0,0-6.68-4.69c-1.72-4.21-4.62-7.62-8.11-8.73A30.19,30.19,0,0,0,350,166.76s-7,6.86,1.89,16.78a2.57,2.57,0,0,0-1.75,1.6,2.62,2.62,0,0,0,1.62,3.32l1.27-3.69h0s1.76-4,5.2-2.92,3.22,5.71.54,8.1a5.28,5.28,0,0,1-4.81,1.37l-.53-.16a11.5,11.5,0,0,0,.47,3.22,6,6,0,1,0,8.26,8.21,5,5,0,0,0,9.6.45,5.93,5.93,0,0,0,2.27.45,6,6,0,0,0,5.91-5H380a5,5,0,0,0,5-5,5.31,5.31,0,0,0-.12-1.07A6,6,0,0,0,390,186.5Z" style="fill:#263238"></path><path d="M378.29,248.92c-2.87,4.43-22.67,9.75-32.76,3.65,0,0-13.77,23.83-15.56,44.1,0,0,13,14.66,41.53,10.09,20.84-3.34,27.48-16.65,27.48-16.65A87.86,87.86,0,0,0,388.68,264C385.85,259.29,379.76,253.32,378.29,248.92Z" style="fill:#261E68"></path><path d="M378.29,248.92c-2.87,4.43-22.67,9.75-32.76,3.65,0,0-13.77,23.83-15.56,44.1,0,0,13,14.66,41.53,10.09,20.84-3.34,27.48-16.65,27.48-16.65A87.86,87.86,0,0,0,388.68,264C385.85,259.29,379.76,253.32,378.29,248.92Z" style="opacity:0.1"></path><path d="M385.37,303.67l-2-.37s-2.91-26.6-14.7-49.5l1.35-.39s8.63,14.38,13.35,28.42S385.37,303.67,385.37,303.67Z" style="fill:#261E68"></path><path d="M385.37,303.67l-2-.37s-2.91-26.6-14.7-49.5l1.35-.39s8.63,14.38,13.35,28.42S385.37,303.67,385.37,303.67Z" style="opacity:0.2"></path><path d="M352.74,309.41l1.4-2.15s-1.84-37.32,1.21-52l-1-.07S348.71,275.74,352.74,309.41Z" style="fill:#261E68"></path><path d="M352.74,309.41l1.4-2.15s-1.84-37.32,1.21-52l-1-.07S348.71,275.74,352.74,309.41Z" style="opacity:0.2"></path><path d="M352.62,307.05c.07,1.51.12,2.36.12,2.36-14.86-1.2-17.82-6.36-17.82-6.36.09-.74.19-1.47.29-2.21,3.55-25,14.18-46.6,14.18-46.6a25,25,0,0,0,5,.95h0C351,267.28,352.18,298.27,352.62,307.05Z" style="fill:#261E68"></path><path d="M352.62,307.05c.07,1.51.12,2.36.12,2.36-14.86-1.2-17.82-6.36-17.82-6.36.09-.74.19-1.47.29-2.21,3.55-25,14.18-46.6,14.18-46.6a25,25,0,0,0,5,.95h0C351,267.28,352.18,298.27,352.62,307.05Z" style="fill:#261E68;opacity:0.30000000000000004"></path><path d="M376.56,306.75c-8.34,4.17-17.41,2.66-17.41,2.66,0-.6-.1-1.2-.14-1.8-1.69-23.77.83-47.39,1.41-52.4,1.51-.11,3-.31,4.44-.56,7.63,18.34,11,45.45,11.59,51.06C376.52,306.39,376.56,306.75,376.56,306.75Z" style="fill:#261E68"></path><path d="M396.74,295.66a33.32,33.32,0,0,1-11.37,8c0-.42-.07-.84-.11-1.26-2-21.23-13.79-46.06-15.21-49a30.92,30.92,0,0,0,4.13-1.55c12.35,9,20.19,35.08,22.11,42.06C396.59,295,396.74,295.66,396.74,295.66Z" style="fill:#261E68"></path><path d="M344.66,248.68l.56,4.44a35.5,35.5,0,0,0,17,2.75c9.75-.79,15.22-4.1,16.1-7l0-3.42S364.13,256.2,344.66,248.68Z" style="fill:#37474f"></path></g></g></g></svg>
