<svg xmlns="http://www.w3.org/2000/svg" viewBox="0 0 500 500"><g id="freepik--background-complete--inject-3"><path d="M445.43,153H344.92s10-27.22,25.3-27.22,20.14,18.79,20.14,18.79,10.35-10.21,18.85-10.21,15.89,13.49,15.89,13.49S437.12,140.56,445.43,153Z" style="fill:#ebebeb"></path><path d="M293.1,290.07H192.59s10-27.22,25.31-27.22S238,281.63,238,281.63s10.35-10.2,18.85-10.2,15.89,13.49,15.89,13.49S284.79,277.66,293.1,290.07Z" style="fill:#ebebeb"></path><path d="M364.45,99.13h-47S328,83.92,336.24,83.92,347,94.06,347,94.06s5.83-4.73,11.24-3.88S364.45,99.13,364.45,99.13Z" style="fill:#ebebeb"></path><path d="M277.51,190.28h-47s10.5-15.21,18.77-15.21S260,185.21,260,185.21s5.84-4.73,11.24-3.89S277.51,190.28,277.51,190.28Z" style="fill:#ebebeb"></path><path d="M146.06,154.26H54.57s12.53-28,25.93-29.72,19.81,20.79,19.81,20.79,8.65-8,15.45-8,12,10.49,12,10.49S141.4,140.66,146.06,154.26Z" style="fill:#ebebeb"></path><path d="M233,75.66h-61.8s10.62-20.27,22.13-20.56,17.58,15.34,17.58,15.34S228.83,56.06,233,75.66Z" style="fill:#ebebeb"></path><path d="M439.44,237.5h-61.8s10.61-20.27,22.13-20.56,17.57,15.33,17.57,15.33S435.26,217.9,439.44,237.5Z" style="fill:#ebebeb"></path><path d="M81.69,365.5l-13.12.28-6.66.11c-2.23.05-4.47,0-6.7.06h-.44v-.45l-.06-11.19v-.5h.5l13.24.07c4.41,0,8.83.11,13.24.16H82v.27c0,1.9-.08,3.79-.13,5.66Zm0,0-.14-5.65c0-1.86-.11-3.7-.13-5.54l.27.28c-4.41.05-8.83.16-13.24.16l-13.24.06.5-.5-.05,11.19-.45-.44c2.18,0,4.36,0,6.55.05l6.58.12Z" style="fill:#ebebeb"></path><path d="M66.92,379.61l-13.13.28-6.66.11c-2.22.05-4.46,0-6.69.06H40v-.45l-.05-11.19v-.5h.5l13.24.07c4.41,0,8.83.11,13.24.16h.28v.27c0,1.9-.08,3.79-.13,5.66Zm0,0L66.78,374c0-1.86-.11-3.7-.13-5.54l.27.28c-4.41.05-8.83.16-13.24.16l-13.24.06.5-.5-.06,11.19-.44-.44c2.18,0,4.36,0,6.54.05l6.58.11Z" style="fill:#ebebeb"></path><path d="M283.17,365.5l-13.12.28-6.66.11c-2.23.05-4.47,0-6.7.06h-.44v-.45l-.06-11.19v-.5h.5l13.24.07c4.42,0,8.83.11,13.24.16h.28v.27c0,1.9-.09,3.79-.14,5.66Zm0,0-.14-5.65c0-1.86-.11-3.7-.13-5.54l.27.28c-4.41.05-8.82.16-13.24.16l-13.24.06.5-.5-.05,11.19-.45-.44c2.18,0,4.36,0,6.55.05l6.58.12Z" style="fill:#ebebeb"></path><path d="M268.4,379.61l-13.12.28-6.66.11c-2.23.05-4.47,0-6.7.06h-.44v-.45l-.06-11.19v-.5h.5l13.24.07c4.41,0,8.83.11,13.24.16h.28v.27c0,1.9-.08,3.79-.13,5.66Zm0,0-.14-5.65c-.05-1.86-.11-3.7-.13-5.54l.27.28c-4.41.05-8.83.16-13.24.16l-13.24.06.5-.5,0,11.19-.45-.44c2.18,0,4.36,0,6.55.05l6.58.11Z" style="fill:#ebebeb"></path><path d="M253.69,365.5l-13.13.28-6.66.11c-2.22.05-4.46,0-6.69.06h-.45v-.45l0-11.19v-.5h.5l13.24.07c4.41,0,8.82.11,13.24.16H254v.27c0,1.9-.09,3.79-.13,5.66Zm0,0-.14-5.65c-.05-1.86-.12-3.7-.14-5.54l.28.28c-4.42.05-8.83.16-13.24.16l-13.24.06.5-.5-.06,11.19-.44-.44c2.18,0,4.35,0,6.54.05l6.58.12Z" style="fill:#ebebeb"></path><path d="M460.06,379.61l-13.12.28-6.67.11c-2.22.05-4.46,0-6.69.06h-.44v-.45l-.05-11.19v-.5h.5l13.24.07c4.41,0,8.83.11,13.24.16h.28v.27c0,1.9-.08,3.79-.13,5.66Zm0,0-.14-5.65c-.05-1.86-.11-3.7-.13-5.54l.27.28c-4.41.05-8.83.16-13.24.16l-13.24.06.5-.5L434,379.61l-.45-.44c2.18,0,4.36,0,6.55.05l6.57.11Z" style="fill:#ebebeb"></path></g><g id="freepik--Shadow--inject-3"><ellipse cx="250" cy="451.4" rx="198.22" ry="15.61" style="fill:#ebebeb"></ellipse></g><g id="freepik--Floor--inject-3"><polygon points="39.15 394.3 91.86 394.06 144.58 393.97 250 393.8 355.42 393.97 408.14 394.06 460.85 394.3 408.14 394.55 355.42 394.63 250 394.8 144.58 394.63 91.86 394.55 39.15 394.3" style="fill:#263238"></polygon></g><g id="freepik--Window--inject-3"><rect x="39.15" y="39.54" width="421.7" height="297.89" style="fill:#dbdbdb;opacity:0.30000000000000004"></rect><g style="opacity:0.5"><polygon points="191.82 39.54 39.15 177.44 39.15 143.66 154.41 39.54 191.82 39.54" style="fill:#fff"></polygon><polygon points="460.85 229.01 460.85 262.8 378.21 337.43 340.8 337.43 460.85 229.01" style="fill:#fff"></polygon><polygon points="110.78 39.54 39.15 104.25 39.15 93.17 98.54 39.54 110.78 39.54" style="fill:#fff"></polygon><polygon points="460.85 106.74 460.85 117.8 217.7 337.43 205.44 337.43 460.85 106.74" style="fill:#fff"></polygon><polygon points="460.85 280.73 460.85 291.79 410.32 337.43 398.06 337.43 460.85 280.73" style="fill:#fff"></polygon><polygon points="407.86 39.54 78.06 337.43 65.8 337.43 395.61 39.54 407.86 39.54" style="fill:#fff"></polygon><polygon points="281.68 39.54 39.15 258.61 39.15 256.02 278.83 39.54 281.68 39.54" style="fill:#fff"></polygon><polygon points="460.85 134.81 460.85 137.39 239.38 337.43 236.52 337.43 460.85 134.81" style="fill:#fff"></polygon></g><rect x="39.15" y="121.38" width="421.7" height="2.4" style="fill:#a6a6a6"></rect><rect x="27.28" y="187.26" width="297.89" height="2.46" transform="translate(364.71 12.26) rotate(90)" style="fill:#a6a6a6"></rect><rect x="174.83" y="187.26" width="297.89" height="2.46" transform="translate(512.26 -135.29) rotate(90)" style="fill:#a6a6a6"></rect><rect x="39.15" y="337.43" width="421.7" height="8.84" style="fill:#37474f"></rect></g><g id="freepik--Plane--inject-3"><path d="M256.82,231.49c2.05.65,4.09,1.28,6.14,1.91l4.49,1.37.08,0,4.58,1.38h0l.9.26q6.76,2,13.54,4,14.9,4.33,29.85,8.43c20,5.45,40,10.58,60.15,15.18l5.4,1.21,3.95.87q10.47,2.28,21,4.32c10.16,1.94,20.35,3.69,30.61,5.08,5.13.69,10.27,1.28,15.42,1.73l3.12.25v-1.37l-3-.34c-5.11-.61-10.21-1.36-15.29-2.21-10.16-1.69-20.26-3.75-30.3-6q-10-2.25-19.92-4.74l-4-1-6.12-1.58q-7.56-2-15.08-4-4.78-1.32-9.56-2.67-17.46-4.94-34.8-10.29-14.78-4.54-29.47-9.34l-4.6-1.51-1.33-.44h0l-3.92-1.3c-6.5-2.15-13-4.35-19.42-6.59l-2.44,7.28Z" style="fill:#dbdbdb;opacity:0.4"></path><path d="M275.19,228.22l2,.63,4.72,1.49.51.16L284,231h0l6.46,2q18.39,5.67,36.87,11,7.51,2.16,15.05,4.26,12.69,3.55,25.44,6.89,6,1.59,12.12,3.11l1.22.31q7.71,1.94,15.44,3.77c12.12,2.87,24.28,5.53,36.53,7.82,7.59,1.4,15.22,2.69,22.89,3.67v-.56c-7.61-1.12-15.18-2.53-22.71-4.06-11.56-2.37-23.05-5.08-34.48-8q-9.22-2.34-18.41-4.83-19-5.15-37.81-10.8-7.25-2.16-14.45-4.37-18.33-5.62-36.57-11.6l-4.33-1.43-4.9-1.63-2-.68-4-1.33-.14.39-.32,1-.44,1.33-.11.34Z" style="fill:#dbdbdb;opacity:0.4"></path><path d="M256.09,236.22l1.12.35.55.17h0l1.53.48.71.21.75.23.64.2h0q3.8,1.17,7.61,2.31,7.83,2.34,15.68,4.61,14.34,4.14,28.74,8,24.27,6.56,48.75,12.29c3.05.71,6.11,1.4,9.17,2.09,8.8,2,17.63,3.82,26.48,5.52l2.74.52c9.77,1.84,19.59,3.49,29.45,4.81,8.64,1.16,17.33,2.08,26,2.51V280c-8.67-.56-17.31-1.61-25.9-2.91-9.82-1.48-19.58-3.3-29.31-5.29-2-.41-4.06-.84-6.09-1.27q-7.36-1.57-14.7-3.29c-.64-.14-1.27-.28-1.9-.44-2.12-.49-4.25-1-6.37-1.5s-4.32-1.05-6.48-1.59c-17.12-4.22-34.14-8.84-51.09-13.71q-14.31-4.11-28.55-8.48c-4.57-1.41-9.14-2.82-13.7-4.27l-3-.94h0l-2.72-.86h0a1.9,1.9,0,0,1-.36-.12c-1.4-.44-2.79-.89-4.19-1.35l-1.06-.34-3.35-1.1-1,3.2Z" style="fill:#dbdbdb;opacity:0.4"></path><path d="M253.83,236.82c.37-.42,5.49-4,5.87-4.26l-.87-.16S254.15,236.38,253.83,236.82Z" style="fill:#c7c7c7"></path><path d="M253.82,236.85h0c0,.1.39.17.79.23h0a3.34,3.34,0,0,0,1.1,0c.11-.08,3.8-1.92,6.06-3.05l.09,0h0a3.18,3.18,0,0,0,.32-.16l.93-.46.36-.18-3.8-.65c-.21.15-1.94,1.35-3.47,2.45a.91.91,0,0,1-.16.11l-.42.31c-.93.67-1.68,1.24-1.82,1.39v0Z" style="fill:#c7c7c7"></path><g style="opacity:0.5"><path d="M253.82,236.85h0c0,.1.39.17.79.23h0a3.34,3.34,0,0,0,1.1,0c.11-.08,3.9-2,6.15-3.1-.37.18-5.23,2.52-6.22,1.41-.93.67-1.68,1.24-1.82,1.39v0Z" style="fill:#c7c7c7"></path><path d="M256.07,235.12a2.51,2.51,0,0,0,.46.16,2.73,2.73,0,0,0,.64.06l.32,0,.31-.05c.41-.07.82-.18,1.22-.28.81-.23,1.59-.5,2.37-.8l.82-.33.93-.46-1.81.62c-.79.26-1.58.52-2.37.74-.4.11-.8.21-1.2.29a3.2,3.2,0,0,1-1.19.06,1.89,1.89,0,0,1-.34-.09A.91.91,0,0,1,256.07,235.12Z" style="fill:#c7c7c7"></path></g><path d="M203.76,241h0c0,.5,2.8.67,3.18.56s30.9-12.12,30.9-12.12L226.62,225l-.32.23-.15.1c-2.06,1.43-8.24,5.71-13.63,9.48l-.32.22-.42.29C208,238,204.8,240.25,203.76,241Z" style="fill:#c7c7c7"></path><path d="M203.76,241c2.73-2,20.53-14.37,22.86-16l-1.42-.56s-20.74,15.78-21.37,16.4A.25.25,0,0,0,203.76,241Z" style="fill:#c7c7c7"></path><g style="opacity:0.5"><path d="M203.76,241h0c0,.5,2.8.67,3.18.56s30.9-12.12,30.9-12.12L226.62,225s2.77,3.18-3.81,8.06c-4.48,3.32-9.26,4-11,2.26C208,238,204.8,240.25,203.76,241Z" style="fill:#c7c7c7"></path><path d="M212.2,235.06a5.13,5.13,0,0,0,1,.41,6.51,6.51,0,0,0,2.81.11,15.08,15.08,0,0,0,5.13-2,18.39,18.39,0,0,0,2.25-1.6,10.83,10.83,0,0,0,1.89-2.05,8.3,8.3,0,0,0,.7-1.23,7,7,0,0,0,.42-1.35,4.88,4.88,0,0,0-.07-2.05l-.15.1a4.77,4.77,0,0,1-.24,1.84,6.89,6.89,0,0,1-1.26,2.24c-.14.17-.27.33-.43.49s-.3.31-.45.46a11.26,11.26,0,0,1-1,.85,19.86,19.86,0,0,1-2.17,1.49,24.84,24.84,0,0,1-2.33,1.24,13.89,13.89,0,0,1-2.46.88,7.83,7.83,0,0,1-1.27.21,6.07,6.07,0,0,1-1.28,0,4.94,4.94,0,0,1-.76-.18Z" style="fill:#c7c7c7"></path></g><path d="M229.17,233.41c.87.42,1.81.75,1.88-.12,0-.36-.25-.74-1.64-1.41-.33-.16-1.13-.51-1.36.22S228.85,233.25,229.17,233.41Z" style="fill:#c7c7c7"></path><path d="M222.1,236.3c.87.42,1.81.76,1.88-.12,0-.35-.25-.73-1.64-1.4-.33-.16-1.13-.51-1.36.21S221.78,236.15,222.1,236.3Z" style="fill:#c7c7c7"></path><path d="M215,239.2c.87.42,1.81.75,1.88-.12,0-.36-.25-.74-1.65-1.41-.32-.16-1.12-.51-1.36.22S214.7,239,215,239.2Z" style="fill:#c7c7c7"></path><path d="M217.34,231.59c.85,1.52,2.79,2.07,4,2.56,3.25,1.29,5.61,2,6.77-.93a3.54,3.54,0,0,0,.26-1.07c.2-2.22-2.11-3.34-3.28-4h0c-1.41-.74-2.41-1.22-3.15-1.53a5.73,5.73,0,0,0-2.32-.6c-.66,0-2.14.14-2.63,2.87A3.86,3.86,0,0,0,217.34,231.59Z" style="fill:#c7c7c7"></path><path d="M217.34,231.59c.85,1.52,2.79,2.07,4,2.56,3.25,1.29,5.61,2,6.77-.93a3.54,3.54,0,0,0,.26-1.07c-.12.21-1.22,1.85-4.14,1.4-3.1-.47-6.8-4.52-2.3-6.89a5.73,5.73,0,0,0-2.32-.6c-.66,0-2.14.14-2.63,2.87A3.86,3.86,0,0,0,217.34,231.59Z" style="fill:#c7c7c7"></path><path d="M217.3,229.48c0,1.66,1,3,2.32,3s2.32-1.34,2.32-3-1-3-2.32-3S217.3,227.82,217.3,229.48Z" style="fill:#c7c7c7"></path><path d="M217.57,229.48a2.12,2.12,0,1,0,2.05-2.66A2.41,2.41,0,0,0,217.57,229.48Z" style="fill:#c7c7c7"></path><path d="M265.86,228.68l.54.2,1.21.44,4.18-1.81c4-1.74,8.85-3.78,9.77-4.09l-.12,0-.1,0-.14.05-.08,0-.32.1-.33.11-.92.3-.32.1-.29.1-.16.06-.5.16-.33.11-4.3,1.45-.41.14-1.6.54-2.77.93-.39.14-1.2.4h0l-.3.11-.15.05-.07,0Z" style="fill:#c7c7c7"></path><path d="M267.61,229.32l3.24,1.18s7.23-3.36,11.54-5.46l.05,0,.06,0,1.24-.61a10.92,10.92,0,0,0,1.8-1c-.12-.24-2.81-.3-3.88,0h0l-.07,0c-.89.3-5.4,2.22-9.36,3.92l-.09,0-.32.14Z" style="fill:#c7c7c7"></path><g style="opacity:0.5"><path d="M267.61,229.32l3.24,1.18s7.23-3.36,11.54-5.46c-.71.3-8,3.52-9.83,3.08a1,1,0,0,1-.77-.61Z" style="fill:#c7c7c7"></path><path d="M272.11,227.37a1.13,1.13,0,0,0,.46.35,1.21,1.21,0,0,0,.49.11,4.18,4.18,0,0,0,.5,0c.32,0,.64-.1,1-.17,1.26-.29,2.49-.68,3.72-1.08s2.43-.85,3.63-1.33l.63-.24,1.24-.61-1.93.69c-1.22.42-2.43.86-3.65,1.26s-2.44.81-3.69,1.12c-.31.08-.62.15-.93.2a1.78,1.78,0,0,1-.92,0,1.32,1.32,0,0,1-.42-.27Z" style="fill:#c7c7c7"></path></g><path d="M259.28,224.7l7.86,3.78s-.09-6.74-.15-11.58v-.5c0-.13,0-.26,0-.39,0-1.66,0-3,0-3.6,0-1.95-.24-2.35-.76-2a23.82,23.82,0,0,0-3.5,3.2c-.57.73-1.82,5.15-2.64,8.2a.19.19,0,0,1,0,.07c0,.18-.09.35-.13.52C259.52,223.73,259.28,224.7,259.28,224.7Z" style="fill:#c7c7c7"></path><g style="opacity:0.5"><path d="M259.28,224.7l7.86,3.78s-.09-6.74-.15-11.58c-1.15,2.58-3.44,6.1-7.1,5.47C259.52,223.73,259.28,224.7,259.28,224.7Z" style="fill:#c7c7c7"></path><path d="M260,221.85a3.93,3.93,0,0,0,2.36-.32,6.36,6.36,0,0,0,1.2-.72,10.06,10.06,0,0,0,1-.92,13,13,0,0,0,1.66-2.19,12.56,12.56,0,0,0,.71-1.3c0-.13,0-.26,0-.39-.32.5-.66,1-1,1.48s-.53.72-.81,1.07-.57.68-.89,1a8.66,8.66,0,0,1-2,1.63,4.56,4.56,0,0,1-2.18.59A.19.19,0,0,1,260,221.85Z" style="fill:#c7c7c7"></path></g><path d="M272.63,232.6c.8-2-2.63-3.86-6.53-5.61s-42.33-18.7-47.9-20.21-12.06.56-13.16,3.74c-1.64,4.77,5.29,8.77,30.19,19.1,3.26,1.35,17.85,4.85,26.06,4.88C270.06,234.53,272.23,233.59,272.63,232.6Z" style="fill:#c7c7c7"></path><path d="M235.23,229.62c3.26,1.35,17.85,4.85,26.06,4.88,8.77,0,10.94-.9,11.34-1.9s-.32-2.06-1.68-3a1.41,1.41,0,0,1-.1.6c-.37.91-2.33,1.75-10.29,1.72-7.45,0-18.16-6-21.12-7.28-22.59-9.36-31.41-10.14-29.92-14.48.65-1.88,3.39-3.34,6.62-3.74-5-.6-10.13,1.34-11.1,4.14C203.4,215.29,210.33,219.29,235.23,229.62Z" style="fill:#c7c7c7;opacity:0.2"></path><polygon points="260.44 225.93 259.56 225.55 259.56 226.85 260.44 227.23 260.44 225.93" style="fill:#c7c7c7"></polygon><polygon points="258.83 225.23 257.89 224.82 257.89 226.12 258.83 226.53 258.83 225.23" style="fill:#c7c7c7"></polygon><polygon points="257.16 224.51 256.22 224.1 256.22 225.4 257.16 225.81 257.16 224.51" style="fill:#c7c7c7"></polygon><polygon points="255.49 223.79 254.54 223.38 254.54 224.68 255.49 225.09 255.49 223.79" style="fill:#c7c7c7"></polygon><polygon points="253.82 223.06 252.87 222.66 252.87 223.95 253.82 224.36 253.82 223.06" style="fill:#c7c7c7"></polygon><polygon points="252.15 222.34 251.2 221.93 251.2 223.23 252.15 223.64 252.15 222.34" style="fill:#c7c7c7"></polygon><polygon points="250.47 221.62 249.53 221.21 249.53 222.51 250.47 222.91 250.47 221.62" style="fill:#c7c7c7"></polygon><polygon points="248.8 220.89 247.86 220.49 247.86 221.78 248.8 222.19 248.8 220.89" style="fill:#c7c7c7"></polygon><polygon points="247.13 220.17 246.19 219.76 246.19 221.06 247.13 221.47 247.13 220.17" style="fill:#c7c7c7"></polygon><polygon points="245.46 219.45 244.52 219.04 244.52 220.34 245.46 220.75 245.46 219.45" style="fill:#c7c7c7"></polygon><polygon points="243.79 218.72 242.85 218.31 242.85 219.61 243.79 220.02 243.79 218.72" style="fill:#c7c7c7"></polygon><polygon points="242.12 218 241.18 217.59 241.18 218.89 242.12 219.3 242.12 218" style="fill:#c7c7c7"></polygon><polygon points="240.45 217.28 239.51 216.87 239.51 218.17 240.45 218.57 240.45 217.28" style="fill:#c7c7c7"></polygon><polygon points="238.78 216.55 237.84 216.15 237.84 217.44 238.78 217.85 238.78 216.55" style="fill:#c7c7c7"></polygon><polygon points="237.11 215.83 236.16 215.42 236.16 216.72 237.11 217.13 237.11 215.83" style="fill:#c7c7c7"></polygon><polygon points="235.44 215.11 234.49 214.7 234.49 216 235.44 216.41 235.44 215.11" style="fill:#c7c7c7"></polygon><polygon points="233.76 214.38 232.82 213.97 232.82 215.27 233.76 215.68 233.76 214.38" style="fill:#c7c7c7"></polygon><polygon points="232.09 213.66 231.15 213.25 231.15 214.55 232.09 214.96 232.09 213.66" style="fill:#c7c7c7"></polygon><polygon points="230.42 212.94 229.48 212.53 229.48 213.83 230.42 214.24 230.42 212.94" style="fill:#c7c7c7"></polygon><polygon points="228.75 212.21 227.81 211.81 227.81 213.1 228.75 213.51 228.75 212.21" style="fill:#c7c7c7"></polygon><polygon points="227.08 211.49 226.14 211.08 226.14 212.38 227.08 212.79 227.08 211.49" style="fill:#c7c7c7"></polygon><polygon points="224.47 210.36 224.47 211.66 225.41 212.06 225.41 210.77 224.47 210.36" style="fill:#c7c7c7"></polygon><polygon points="222.8 209.63 222.8 210.93 223.74 211.34 223.74 210.04 222.8 209.63" style="fill:#c7c7c7"></polygon><polygon points="221.12 208.91 221.12 210.21 222.07 210.62 222.07 209.32 221.12 208.91" style="fill:#c7c7c7"></polygon><polygon points="219.45 208.19 219.45 209.49 220.4 209.9 220.4 208.6 219.45 208.19" style="fill:#c7c7c7"></polygon><path d="M215.08,207.66a4.54,4.54,0,0,0-1.75-.82v.86Z" style="fill:#c7c7c7"></path><path d="M211.28,206.64v1.19q.66-.06,1.32-.09v-1A6.46,6.46,0,0,0,211.28,206.64Z" style="fill:#c7c7c7"></path><path d="M207.08,208.32c.37,0,.71-.07,1-.11l1-.14c.48-.07,1-.12,1.42-.17v-1.19a6.9,6.9,0,0,0-1.67.46,5.69,5.69,0,0,0-.95.49,2.69,2.69,0,0,0-.44.31A4.47,4.47,0,0,0,207.08,208.32Z" style="fill:#c7c7c7"></path><path d="M237.11,218.9l11.07,5.33s17.61-9.44,30.24-16.33l0,0h0c6.75-3.68,11.89-6.54,11.81-6.65-.21-.29-3.6-.25-4.95-.07a2.18,2.18,0,0,0-.38.07c-.57.15-20.49,7.53-34.44,12.7Z" style="fill:#c7c7c7"></path><g style="opacity:0.5"><path d="M237.11,218.9l11.07,5.33s17.61-9.44,30.24-16.33c-1,.5-23.64,11.91-26.59,10.2-1.12-.65-1.41-2.32-1.34-4.17Z" style="fill:#c7c7c7"></path><path d="M276.79,208.79h0l-1.45.64q-5,2.22-10.16,4.24c-1.71.66-3.43,1.31-5.16,1.91-.87.3-1.75.59-2.63.86s-1.77.52-2.68.71a7.26,7.26,0,0,1-1.42.16,2,2,0,0,1-.41,0,1.86,1.86,0,0,1-.37-.16,2.73,2.73,0,0,1-.6-.46,3.36,3.36,0,0,1-.77-1.24,6,6,0,0,1-.33-1.38,1.23,1.23,0,0,1,0-.2l.34-.12a2.51,2.51,0,0,0,0,.27,4.05,4.05,0,0,0,1.08,2.32,2.15,2.15,0,0,0,.5.35.91.91,0,0,0,.26.11,1.23,1.23,0,0,0,.28,0,6.84,6.84,0,0,0,1.3-.2,52.13,52.13,0,0,0,5.2-1.64q2.58-.93,5.13-1.94c3.42-1.32,6.81-2.7,10.21-4.07l5.5-2.23h0Z" style="fill:#c7c7c7"></path></g><path d="M235.49,218.17l3.29,1.58c8.41-3.52,43.41-17.36,46.35-18.52l.09,0,.07,0h0a2.18,2.18,0,0,0-.38.07C284.05,201.47,235.49,218.17,235.49,218.17Z" style="fill:#c7c7c7"></path><path d="M259.21,218.43c1.08.52,2.26.93,2.35-.15,0-.45-.31-.93-2.06-1.76-.4-.2-1.4-.64-1.7.27S258.8,218.23,259.21,218.43Z" style="fill:#c7c7c7"></path><path d="M268.58,213.69c1.09.53,2.26.94,2.35-.15,0-.44-.31-.92-2.05-1.76-.41-.2-1.41-.63-1.7.27S268.18,213.49,268.58,213.69Z" style="fill:#c7c7c7"></path><path d="M278,208.9c1,.49,2.1.87,2.18-.14,0-.41-.29-.86-1.91-1.64-.38-.18-1.31-.59-1.58.25S277.61,208.72,278,208.9Z" style="fill:#c7c7c7"></path><path d="M245.23,217.35c.85,1.52,2.78,2.07,4,2.56,3.25,1.29,5.61,2,6.77-.93a3.87,3.87,0,0,0,.26-1.07c.19-2.23-2.11-3.34-3.29-3.95h0c-1.41-.74-2.41-1.22-3.16-1.54a5.76,5.76,0,0,0-2.31-.59c-.66,0-2.14.14-2.63,2.86A3.88,3.88,0,0,0,245.23,217.35Z" style="fill:#c7c7c7"></path><path d="M245.23,217.35c.85,1.52,2.78,2.07,4,2.56,3.25,1.29,5.61,2,6.77-.93a3.87,3.87,0,0,0,.26-1.07c-.12.21-1.23,1.85-4.14,1.4-3.1-.47-6.8-4.53-2.31-6.9a5.76,5.76,0,0,0-2.31-.59c-.66,0-2.14.14-2.63,2.86A3.88,3.88,0,0,0,245.23,217.35Z" style="fill:#c7c7c7"></path><path d="M245.19,215.24c0,1.66,1,3,2.32,3s2.31-1.34,2.31-3-1-3-2.31-3S245.19,213.58,245.19,215.24Z" style="fill:#c7c7c7"></path><path d="M245.46,215.24a2.41,2.41,0,0,0,2,2.65c1.13,0,2-1.19,2-2.65s-.91-2.66-2-2.66A2.42,2.42,0,0,0,245.46,215.24Z" style="fill:#c7c7c7"></path><path d="M280.47,223.77l.33-.11Z" style="fill:#c7c7c7"></path></g><g id="freepik--Plant--inject-3"><path d="M80.09,257.59s-19.19-2.69-14.7-25.86C65.39,231.73,86.83,236.55,80.09,257.59Z" style="fill:#261E68"></path><path d="M80.09,257.59s-19.19-2.69-14.7-25.86C65.39,231.73,86.83,236.55,80.09,257.59Z" style="opacity:0.1"></path><path d="M79.12,252.75a35.87,35.87,0,0,0-1.3-3.45c0-.15,0-.3,0-.44,0-.32-.06-.64-.08-1-.06-.69-.1-1.38-.14-2.07-.08-1.39-.17-2.77-.19-4.16,0-.07-.12-.07-.12,0,0,1.38,0,2.77,0,4.15,0,.7.07,1.39.11,2.08,0,.15,0,.31,0,.46a41.62,41.62,0,0,0-3.85-6.58,33.6,33.6,0,0,0-2.1-2.66c-.76-.88-1.57-1.71-2.35-2.58,0-.05-.13,0-.08.09a34.21,34.21,0,0,1,3.7,4.92c.58.88,1.13,1.78,1.66,2.71l-.18-.07-.68-.28L72,243.33l-3.09-1.15c-.06,0-.1.08,0,.11,1,.4,2,.83,3,1.27l1.49.64.74.31a3.45,3.45,0,0,0,.51.18c.39.69.77,1.39,1.13,2.1a49.8,49.8,0,0,1,2.34,5.53c0,.13.09.26.14.4a11.32,11.32,0,0,0-1.57-.76l-2-.91c-1.34-.62-2.68-1.24-4-2-.07,0-.12.07-.06.1,1.32.72,2.61,1.49,3.93,2.2.66.36,1.33.71,2,1a6.29,6.29,0,0,0,1.81.72,22.62,22.62,0,0,1,1.25,5.44c.22,2.62.19,5.26.26,7.89,0,0,.06,0,.07,0,.19-2.38.29-4.79.31-7.18A20.87,20.87,0,0,0,79.12,252.75Z" style="fill:#263238"></path><path d="M76.17,239.13a22.27,22.27,0,0,0-.19,4.08s0,0,.06,0c.07-1.35.08-2.71.24-4.06C76.29,239.08,76.18,239.05,76.17,239.13Z" style="fill:#263238"></path><path d="M70.68,240.29a14.53,14.53,0,0,1-2.47-1.22c-.06,0-.12.07,0,.11a9.51,9.51,0,0,0,2.49,1.19S70.73,240.31,70.68,240.29Z" style="fill:#263238"></path><path d="M80.71,294.36c0-2.12-.06-4.24-.08-6.36,0-7-.1-14.08-.23-21.13-.1-5.59-.23-11.17-.39-16.77,0,0,0,0-.05-.07,0-1.52,0-3.05,0-4.58,0,0,0,0-.09,0s-.1,0-.1.06c0,1.53,0,3,0,4.58,0,0,0,0,0,.07-.28,9.95-.53,19.9-.59,29.85,0,2,0,4.05,0,6.07Q79,295.77,79,305.5c0,1,0,2.07,0,3.1,0,5.94.06,11.87.07,17.81,0,.32.35.48.73.49s.89-.15.89-.52c0-6.54,0-13.09,0-19.64C80.72,302.62,80.74,298.49,80.71,294.36Z" style="fill:#263238"></path><path d="M72.69,287.92s-9.23-6.84-18-2.22-10.13,22.44-10.13,22.44,12.86,1.84,21-5.87C73.34,294.84,72.69,287.92,72.69,287.92Z" style="fill:#261E68"></path><path d="M72.69,287.92s-9.23-6.84-18-2.22-10.13,22.44-10.13,22.44,12.86,1.84,21-5.87C73.34,294.84,72.69,287.92,72.69,287.92Z" style="opacity:0.1"></path><path d="M75.21,288.34a11,11,0,0,0-5.35-.69,6.18,6.18,0,0,0-1.13-.11l-1.3-.1-2.69-.19c-1.82-.14-3.65-.25-5.47-.43-.06,0-.08.1,0,.11,1.8.23,3.59.49,5.39.67.93.09,1.86.19,2.79.26l.67.06c-.27.06-.55.13-.82.21a21.57,21.57,0,0,0-4.18,1.7c-.73.13-1.45.33-2.16.5-1.14.27-2.28.56-3.42.86-2.24.59-4.45,1.25-6.68,1.89-.07,0,0,.13,0,.12,2.22-.55,4.45-1.05,6.68-1.58,1.08-.26,2.16-.51,3.24-.78l.85-.19a27.15,27.15,0,0,0-6.56,5.7,36,36,0,0,0-4.56,7.19c0,.07.06.13.1.07a34.85,34.85,0,0,1,5.52-7.25l-.12.37-.51,1.63q-.53,1.63-1,3.27c0,.07.09.09.12,0,.39-1.06.76-2.12,1.13-3.18.18-.52.36-1,.55-1.56l.27-.81.09-.24a31.74,31.74,0,0,1,3.27-2.79,24.58,24.58,0,0,1,4.9-2.81l-.09.47L64.48,292c-.18.88-.35,1.75-.52,2.63-.35,1.78-.56,3.59-.9,5.38,0,.07.1.1.11,0,.42-1.8,1-3.57,1.35-5.37.2-.9.41-1.8.59-2.7.09-.42.17-.84.26-1.27,0-.23.1-.47.13-.7.17-.07.33-.15.5-.21a14.48,14.48,0,0,1,7.68-1.05,7.54,7.54,0,0,1,5.56,4.45c.08.2.4.08.35-.13A7.14,7.14,0,0,0,75.21,288.34Z" style="fill:#263238"></path><path d="M61.08,296l-.78,3.51a26.61,26.61,0,0,0-.65,3.41c0,.05.06.05.08,0a26.76,26.76,0,0,0,.78-3.44c.23-1.15.46-2.31.68-3.46C61.2,295.9,61.09,295.88,61.08,296Z" style="fill:#263238"></path><path d="M52.15,298.92c-1.18.6-2.32,1.28-3.54,1.77a.06.06,0,1,0,0,.1A39,39,0,0,0,52.18,299S52.18,298.91,52.15,298.92Z" style="fill:#263238"></path><path d="M74.77,275.36s-11.28.72-16.53-6.72-4.07-18.06-4.07-18.06S66,252,70.72,257.36,74.77,275.36,74.77,275.36Z" style="fill:#261E68"></path><path d="M80.06,286.49c-.39-1.2-.87-2.4-1.33-3.58s-.91-2.27-1.4-3.38A72.82,72.82,0,0,0,74,272.88c-.8-1.37-1.65-2.7-2.53-4,0-.2-.06-.4-.09-.6s-.1-.7-.16-1c-.11-.71-.23-1.43-.35-2.14-.26-1.56-.58-3.1-.83-4.66,0-.08-.13-.08-.12,0,.23,1.54.38,3.09.6,4.63.1.75.2,1.51.32,2.27,0,.27.08.54.13.82a83,83,0,0,0-5.58-7.24c-.27-.31-.55-.62-.83-.92a2.77,2.77,0,0,0-.1-.26c-.09-.22-.17-.43-.25-.65-.16-.44-.32-.89-.49-1.34-.31-.89-.6-1.78-.84-2.69,0-.07-.13,0-.11,0,.23.92.47,1.85.74,2.76.13.44.28.88.43,1.31,0,.08.06.15.08.22-1.44-1.57-2.94-3.08-4.46-4.58-.06,0-.14,0-.08.08a81,81,0,0,1,8,9.8c-.28-.09-.56-.16-.83-.22-.87-.16-1.75-.29-2.63-.4-1.83-.23-3.67-.47-5.5-.75a.06.06,0,0,0,0,.11c1.75.34,3.48.74,5.22,1.14.82.18,1.64.35,2.47.51a15.35,15.35,0,0,1,2,.56l.55.78c.83,1.21,1.62,2.44,2.4,3.68l-1.15-.23c-.87-.17-1.75-.33-2.62-.47-1.73-.28-3.45-.58-5.15-1-.07,0-.1.1,0,.11,1.73.41,3.44.88,5.15,1.34q1.25.33,2.49.6l1.26.27a2.49,2.49,0,0,0,.51.09c1.64,2.67,3.19,5.41,4.62,8.2.63,1.23,1.24,2.47,1.82,3.72s1.12,2.58,1.68,3.88C79.74,286.88,80.15,286.78,80.06,286.49Z" style="fill:#263238"></path><path d="M68.51,260.57c-.21-1.08-.44-2.15-.68-3.22,0-.08-.12,0-.11,0,.22,1.06.42,2.12.61,3.18a31,31,0,0,0,.64,3.16,0,0,0,0,0,0,0A22.3,22.3,0,0,0,68.51,260.57Z" style="fill:#263238"></path><path d="M61.93,260.25c-.52-.26-1.07-.47-1.62-.68l-.85-.34-.44-.17a2,2,0,0,1-.47-.21c-.09-.06-.14.09-.06.1a2,2,0,0,1,.48.2l.43.19.82.37a17,17,0,0,0,1.67.66A.06.06,0,0,0,61.93,260.25Z" style="fill:#263238"></path><path d="M86.31,266.49s6.83-12.75,17.22-14.73,16.74,8.72,16.74,8.72-7.57,9.67-17.1,11.36S86.31,266.49,86.31,266.49Z" style="fill:#261E68"></path><path d="M110.49,257.48a27.84,27.84,0,0,0-8.15.1c.16-.09.31-.18.47-.25l2.3-1.19c1.6-.83,3.21-1.71,4.88-2.38.08,0,0-.14,0-.11-1.62.76-3.31,1.39-4.94,2.14-.81.38-1.62.77-2.41,1.19-.51.27-1.08.53-1.58.85a28.77,28.77,0,0,0-6.6,2.2c.43-.48.86-.95,1.3-1.42,1-1.06,1.92-2.17,3-3.14,0-.05,0-.13-.09-.08-1.08,1-2.23,1.9-3.28,2.93-.52.5-1,1-1.48,1.55-.24.26-.48.53-.7.82a27.36,27.36,0,0,0-13.93,18.8c0,.07.09.11.11,0A31.36,31.36,0,0,1,87,266.61a29.89,29.89,0,0,1,13.91-8.05,30.51,30.51,0,0,1,9.61-.88C110.61,257.69,110.62,257.5,110.49,257.48Z" style="fill:#263238"></path><path d="M120.27,260.48s-7.57,9.67-17.11,11.36c-7.27,1.29-13.25-2.5-15.68-4.37l-.52-.86s4.91-4.15,14.22-6.54S120.27,260.48,120.27,260.48Z" style="opacity:0.1"></path><path d="M104.46,252.93a25.56,25.56,0,0,0-2.31,1.52,15.15,15.15,0,0,0-2,1.84c-.06.06,0,.13.09.08.69-.6,1.38-1.2,2.09-1.76a22.51,22.51,0,0,1,2.19-1.58C104.58,253,104.52,252.89,104.46,252.93Z" style="fill:#263238"></path><path d="M110.16,255.09l-1.17.46-1.15.48c-.08,0,0,.17,0,.13l1.16-.47c.39-.15.76-.33,1.15-.49C110.26,255.17,110.23,255.06,110.16,255.09Z" style="fill:#263238"></path><path d="M85,282.54s1.83,12.65,11.34,17.08,21.11,0,21.11,0S112.84,272.25,85,282.54Z" style="fill:#261E68"></path><path d="M85,282.54s1.83,12.65,11.34,17.08,21.11,0,21.11,0S112.84,272.25,85,282.54Z" style="opacity:0.1"></path><path d="M110.85,291.39c-.88-.1-1.75-.25-2.62-.41l-1.28-.24c-.22,0-.44-.1-.67-.13-.26-.24-.51-.49-.77-.72a39.07,39.07,0,0,0-5.82-4.22,34.61,34.61,0,0,0-3.48-1.79h.17l3.14.14c2.08.09,4.17.14,6.26.27.07,0,.07-.11,0-.11-2.1-.14-4.18-.37-6.27-.55l-3.05-.28-1.56-.13-.41,0c-.54-.21-1.08-.4-1.64-.57a14.75,14.75,0,0,0-8.06-.44c-2.39.61-4.78,2.18-5.4,4.7,0,.09.12.15.16.06.89-2.11,3.23-3.17,5.34-3.61a12.73,12.73,0,0,1,4.31-.08,10.08,10.08,0,0,0,.48,1.91c.26.89.52,1.78.79,2.67.54,1.78,1.13,3.54,1.66,5.32,0,.07.13,0,.11,0-.44-1.77-.81-3.56-1.24-5.34-.21-.88-.43-1.75-.65-2.62a14.15,14.15,0,0,0-.48-1.8,24.67,24.67,0,0,1,2.47.58,37.07,37.07,0,0,1,4.31,1.58c.14.9.34,1.8.55,2.69.26,1.11.55,2.22.91,3.31a.05.05,0,1,0,.1,0c0-.07,0-.14,0-.21h0l-.66-3.1c-.18-.83-.34-1.67-.52-2.5,1.18.53,2.34,1.11,3.47,1.76,0,.25.08.52.12.75.07.44.15.87.23,1.3.18,1,.37,1.95.6,2.91a45.18,45.18,0,0,0,1.64,5.5s0,.05,0,.08l.06.06c0,.05.1,0,.09-.06-.44-1.87-.94-3.73-1.35-5.61-.21-.94-.42-1.88-.6-2.83q-.15-.7-.27-1.41c0-.13,0-.28-.07-.42a39,39,0,0,1,3.7,2.47,39.73,39.73,0,0,1,5.67,5.17c.07.08.21,0,.14-.11a35,35,0,0,0-2.26-2.77c-.48-.51-1-1-1.49-1.49l.16,0,1.34.2c.88.12,1.77.2,2.65.3C110.89,291.51,110.92,291.4,110.85,291.39Z" style="fill:#263238"></path><path d="M104.16,295.68h0c0-.11,0-.22,0-.33s-.1-.27-.12-.41h0c-.2-.84-.36-1.69-.52-2.55,0-.06-.1,0-.1,0a10.38,10.38,0,0,0,.72,3.3s.08,0,.07,0Z" style="fill:#263238"></path><path d="M96.2,295.48a.06.06,0,0,0-.06-.06c-.27-1.12-.52-2.24-.75-3.37-.13-.59-.25-1.18-.36-1.78l-.18-1a2.81,2.81,0,0,0-.2-.82.06.06,0,0,0-.11,0,5.44,5.44,0,0,0,.24,1.69c.11.62.23,1.24.37,1.85.28,1.25.59,2.49.94,3.72a.07.07,0,0,0,.13,0A2.45,2.45,0,0,1,96.2,295.48Z" style="fill:#263238"></path><path d="M110,287.75c-1.74-.24-3.48-.49-5.22-.71-.07,0-.1.11,0,.12,1.74.25,3.48.47,5.22.7C110,287.87,110.05,287.76,110,287.75Z" style="fill:#263238"></path><path d="M80.08,252.87S74.26,227.33,101.7,217C101.7,217,109.3,250.61,80.08,252.87Z" style="fill:#261E68"></path><path d="M86,238.39a2.38,2.38,0,0,1,.3-.18l1.55-.87L91,235.56c2.09-1.17,4.16-2.39,6.27-3.54.07,0,0-.13-.06-.09-2.11,1.14-4.26,2.22-6.39,3.34l-3.14,1.67-1.29.67c.92-1.73,1.89-3.43,3-5.07,1.43-2.19,3-4.27,4.64-6.31.07-.1,0-.22-.14-.13a43.22,43.22,0,0,0-6.34,7.78,2.44,2.44,0,0,1,0-.27c0-.64,0-1.27.06-1.91,0-1.24-.05-2.49,0-3.74,0-.07-.11-.07-.12,0,0,1.22-.19,2.45-.26,3.67,0,.61-.07,1.23-.08,1.84,0,.33-.05.71,0,1.07-.57.9-1.11,1.81-1.62,2.74A45.81,45.81,0,0,0,83,242.43c0-.64-.06-1.27-.1-1.91-.08-1.4-.25-2.79-.31-4.19,0-.07-.12-.07-.12,0,0,1.39,0,2.79,0,4.19,0,.7,0,1.4.09,2.1,0,.26,0,.52,0,.78a46.24,46.24,0,0,0-2.08,7,76.71,76.71,0,0,0-1,7.71,0,0,0,0,0,0,0,41.49,41.49,0,0,1,1.46-6.88c.34-1.2.69-2.4,1.08-3.59,1.14-.54,2.24-1.21,3.34-1.82s2.3-1.26,3.44-1.89c2.29-1.25,4.58-2.53,6.94-3.64.07,0,0-.13-.06-.1-2.4,1.08-4.81,2.12-7.15,3.29-1.17.59-2.32,1.22-3.46,1.86-1,.54-1.94,1.08-2.85,1.69.27-.79.55-1.58.85-2.37A66.89,66.89,0,0,1,86,238.39Z" style="fill:#263238"></path><path d="M83.69,232.55a.06.06,0,0,0-.12,0c.1,1.46.15,2.91.3,4.37,0,.08.14.08.13,0C84,235.45,83.8,234,83.69,232.55Z" style="fill:#263238"></path><path d="M96.84,237.43c-1.71.69-3.45,1.34-5.16,2.06,0,0,0,.1,0,.08,1.73-.65,3.44-1.36,5.17-2C97,237.51,96.91,237.4,96.84,237.43Z" style="fill:#263238"></path><path d="M99.45,225.65a46.57,46.57,0,0,0-4.88,2.61c-.08.05,0,.18.08.13,1.59-.93,3.21-1.82,4.86-2.64C99.58,225.71,99.52,225.62,99.45,225.65Z" style="fill:#263238"></path><rect x="59.47" y="308.1" width="39.57" height="41.71" style="fill:#455a64"></rect><rect x="56.74" y="322.86" width="2.02" height="71.45" style="fill:#263238"></rect><rect x="99.52" y="322.86" width="2.02" height="71.45" style="fill:#263238"></rect><rect x="79.21" y="322.86" width="2.02" height="71.45" style="fill:#263238"></rect><rect x="57.75" y="347.13" width="42.78" height="5.78" style="fill:#263238"></rect></g><g id="freepik--character-2--inject-3"><path d="M326.19,203S304.54,311.71,303,319.74c-.36,1.83.89,99.15.89,99.15H263.68s-3.88-85-1.93-101.05S288.2,203,288.2,203Z" style="fill: rgb(235, 148, 129);"></path><path d="M326.19,203s-10.53,52.92-17.43,87.65L288.2,203Z" style="fill:#263238"></path><polygon points="274.56 257.35 317.34 262.49 326.19 202.98 288.2 202.98 274.56 257.35" style="fill:#37474f"></polygon><path d="M315.74,254.28c-4.58-.92-9.21-1.48-13.85-2s-9.17-1-13.76-1.48c-2.62-.27-5.26-.54-7.89-.68a.13.13,0,1,0,0,.25c4.58.85,9.23,1.39,13.85,2s9.15,1.17,13.74,1.66c2.63.29,5.26.51,7.9.61A.18.18,0,1,0,315.74,254.28Z" style="fill:#263238"></path><path d="M320.27,206.45q-4.77,17.09-9.1,34.3-.6,2.42-1.18,4.84a47.12,47.12,0,0,0-1.07,5,.08.08,0,0,0,.15,0,85,85,0,0,0,2.5-8.62c.77-2.84,1.5-5.7,2.24-8.55,1.47-5.71,2.94-11.42,4.32-17.14q1.19-4.91,2.36-9.81A.11.11,0,0,0,320.27,206.45Z" style="fill:#263238"></path><path d="M233.91,455.77c2.22.74,65.67.56,68.09-1,.91-.57,1.43-9.82,1.73-21,.07-2.41.12-4.9.15-7.44.05-3,.09-6,.11-9,.08-13.25-.4-24.92-.4-24.92h-41l0,24.92v9l.21,7.44s-24.26,11-26.72,12.92S231.7,455,233.91,455.77Z" style="fill: rgb(235, 148, 129);"></path><path d="M233.91,455.77c2.22.74,65.67.56,68.09-1,.91-.57,1.43-9.82,1.73-21,.07-2.41.12-4.9.15-7.44.05-3,.09-6,.11-9H262.6v9l.21,7.44s-24.26,11-26.72,12.92S231.7,455,233.91,455.77Z" style="fill:#dbdbdb"></path><path d="M233.72,455.87c1.45.47,28.47.57,48.15.16,4.55-.09,8.72-.22,12.08-.37,4.63-.21,7.73-.46,8.24-.78,1.11-.72,1.65-14.29,1.9-28.61H262.58l.21,7.48s-24.39,11-26.88,13S231.5,455.12,233.72,455.87Z" style="fill:#261E68"></path><path d="M234.63,453.31c10.69-.29,53.86-.47,64.45.06.09,0,.09.06,0,.06-10.59.53-53.76.35-64.45.06C234.4,453.48,234.4,453.32,234.63,453.31Z" style="fill:#263238"></path><path d="M261.28,431.38c4.2-.79,9.35-.16,12.58,2.83.12.11,0,.29-.18.25a58.8,58.8,0,0,0-12.38-2.54A.27.27,0,0,1,261.28,431.38Z" style="fill:#263238"></path><path d="M258.24,433.22c4.21-.79,9.36-.16,12.58,2.83.13.11,0,.29-.17.24a60,60,0,0,0-12.39-2.54A.27.27,0,0,1,258.24,433.22Z" style="fill:#263238"></path><path d="M255.21,435.06c4.21-.8,9.36-.16,12.58,2.83.13.11,0,.29-.18.24a59.82,59.82,0,0,0-12.38-2.54A.27.27,0,0,1,255.21,435.06Z" style="fill:#263238"></path><path d="M252.18,436.9c4.21-.8,9.35-.16,12.58,2.83.12.11,0,.29-.18.24a60,60,0,0,0-12.38-2.54A.27.27,0,0,1,252.18,436.9Z" style="fill:#263238"></path><path d="M255.38,427.66c3,2.31,6.86,3.24,10.34,4.52a.53.53,0,0,0,.66-.53.11.11,0,0,0,.1-.15,22.5,22.5,0,0,0-6.51-9.62c-1.77-1.47-4.85-2.49-6.49-.21S253.64,426.32,255.38,427.66Zm-1.08-3.38c-.76-4.62,4.21-2.21,5.46-1.07a24.2,24.2,0,0,1,2.24,2.4,66.74,66.74,0,0,1,3.92,5.54c-1.67-.73-3.38-1.32-5.08-2C258.82,428.37,254.71,426.82,254.3,424.28Z" style="fill:#263238"></path><path d="M280.51,425.05c-1-2.63-4.27-2.41-6.34-1.43a22.37,22.37,0,0,0-8.7,7.7.11.11,0,0,0,0,.17.52.52,0,0,0,.51.67c3.69-.37,7.68-.3,11.14-1.79C279.19,429.5,281.48,427.53,280.51,425.05Zm-9,5.41c-1.81.23-3.62.36-5.42.65,1.7-1.49,3.33-3.05,5.18-4.38A24.11,24.11,0,0,1,274,425c1.5-.78,6.9-1.88,5,2.4C278,429.72,273.66,430.19,271.51,430.46Z" style="fill:#263238"></path><path d="M278.18,456.11l3.69-.07c4.56-.1,8.72-.23,12.07-.38,4.63-.21,7.74-.46,8.25-.78.85-.55,1.36-8.48,1.67-18.53Z" style="opacity:0.1"></path><path d="M316.06,413.87l41.39-.51s-9.52-141.12-13.06-170.5c0,0,6.71-15.9-5.85-39.92H288.17s3.37,22.86,9.15,37.35a53.77,53.77,0,0,1,10.54,4.76Z" style="fill: rgb(235, 148, 129);"></path><path d="M308.6,262.8h39.58l-3-19.94s6-20.23-5.74-39.92H288.17s2.12,21.44,8.41,37.57l6.44,2.86Z" style="fill:#37474f"></path><path d="M303,243.37c0-.25-.57-.25-.52,0,2.08,11.75,5.37,17.44,5.61,18a.08.08,0,0,0,.15,0C308.44,260.8,304,248.25,303,243.37Z" style="fill:#263238"></path><path d="M295.41,239.71a84.41,84.41,0,0,1,13.11,6.11.15.15,0,0,1-.12.27c-4.42-1.9-8.92-3.71-13.23-5.85A.29.29,0,0,1,295.41,239.71Z" style="fill:#263238"></path><path d="M294,209.41c0-.16.28-.19.28,0a143.67,143.67,0,0,0,.74,14.76c.2,2.28,2,14.85,6,13.93.66-.15,1-.8,1.1-1.8a15.94,15.94,0,0,0-.53-3.85c-.43-2.63-.79-5.27-1-7.93a72.55,72.55,0,0,1,.16-14.88.13.13,0,0,1,.25,0,138.08,138.08,0,0,0,1.2,20.53c.5,3.27,2.15,8.19-1.27,8.7s-5.74-7.74-6.17-10A75.49,75.49,0,0,1,294,209.41Z" style="fill:#263238"></path><path d="M300.9,238.41a22.3,22.3,0,0,1,.89,2.61,5.85,5.85,0,0,1,.37,2.14c0,.14-.2.15-.28.06a7.66,7.66,0,0,1-.91-2.09c-.3-.8-.62-1.6-.9-2.42A.44.44,0,0,1,300.9,238.41Z" style="fill:#263238"></path><path d="M337.62,224.79c-3.73-.37-7.56-.33-11-2s-5.75-5-7.54-8.37a27.69,27.69,0,0,1-2.48-6.56c0-.11-.18-.08-.18,0a18.44,18.44,0,0,0,1.52,6.19,27.88,27.88,0,0,0,3,5.48,13.24,13.24,0,0,0,4.26,4,14.87,14.87,0,0,0,5.59,1.69,31.84,31.84,0,0,0,6.9,0A.22.22,0,0,0,337.62,224.79Z" style="fill:#263238"></path><path d="M342.75,247.07a35.66,35.66,0,0,1-1.11-5.57c-.1-1.86.89-3.48,1.45-5.2,2.19-6.7,1.3-14-1.09-20.54A73.82,73.82,0,0,0,336.85,205c0-.09-.17,0-.13.08,3.27,6.37,6.15,13.18,6.79,20.38a27.32,27.32,0,0,1-1,10.33c-.48,1.58-1.39,3.1-1.52,4.77a17.42,17.42,0,0,0,.81,5.2c.48,2.08,1.94,8.38,2.58,10.49.06.19.38.15.35-.05C344.47,254.36,343.18,249,342.75,247.07Z" style="fill:#263238"></path><path d="M345.6,257.64c-4.65-.35-9.32-.34-14-.29s-9.22.11-13.83.21c-2.64.05-5.29.11-7.92.3a.13.13,0,1,0,0,.25c4.65.28,9.33.25,14,.28s9.22.05,13.84,0c2.65,0,5.28-.14,7.92-.36A.18.18,0,1,0,345.6,257.64Z" style="fill:#263238"></path><path d="M288.47,457.23c2.24.68,65.66-1.11,68-2.71.9-.59,1.18-9.85,1.2-21q0-3.63,0-7.45c0-3-.06-6-.12-9-.26-13.25-1.56-26-1.56-26l-40.47,2.16.65,24.91.24,9,.4,7.43s-24,11.55-26.39,13.59S286.24,456.55,288.47,457.23Z" style="fill: rgb(235, 148, 129);"></path><path d="M288.47,457.23c2.24.68,65.66-1.11,68-2.71.9-.59,1.18-9.85,1.2-21q0-3.63,0-7.45c0-3-.06-6-.12-9l-41.38,1,.24,9,.4,7.43s-24,11.55-26.39,13.59S286.24,456.55,288.47,457.23Z" style="fill:#dbdbdb"></path><path d="M288.28,457.33c1.46.43,28.48-.15,48.14-1.06,4.55-.21,8.71-.44,12.06-.67,4.62-.33,7.72-.66,8.22-1,1.1-.74,1.29-14.32,1.18-28.64L316.38,427l.4,7.47s-24.11,11.62-26.54,13.66S286,456.63,288.28,457.33Z" style="fill:#261E68"></path><path d="M289.12,454.75c10.68-.56,53.83-1.83,64.43-1.58.09,0,.09.06,0,.07-10.58.79-53.74,1.71-64.43,1.68C288.9,454.92,288.9,454.76,289.12,454.75Z" style="fill:#263238"></path><path d="M315.21,432.15c4.18-.9,9.34-.4,12.64,2.51.13.11,0,.29-.17.25a59.58,59.58,0,0,0-12.44-2.23A.27.27,0,0,1,315.21,432.15Z" style="fill:#263238"></path><path d="M312.22,434.07c4.19-.91,9.35-.4,12.65,2.5.13.11,0,.29-.17.26a58.39,58.39,0,0,0-12.45-2.23A.27.27,0,0,1,312.22,434.07Z" style="fill:#263238"></path><path d="M309.24,436c4.18-.9,9.34-.4,12.64,2.51.13.11,0,.29-.17.25a59,59,0,0,0-12.44-2.22A.27.27,0,0,1,309.24,436Z" style="fill:#263238"></path><path d="M306.25,437.9c4.19-.9,9.35-.4,12.65,2.5.13.12,0,.3-.17.26a59.67,59.67,0,0,0-12.45-2.23A.27.27,0,0,1,306.25,437.9Z" style="fill:#263238"></path><path d="M309.22,428.58c3,2.23,6.94,3.07,10.45,4.26.36.12.64-.23.64-.55a.11.11,0,0,0,.1-.15,22.55,22.55,0,0,0-6.75-9.46c-1.8-1.42-4.91-2.36-6.5,0S307.44,427.28,309.22,428.58Zm-1.17-3.35c-.87-4.6,4.15-2.31,5.44-1.21a25.29,25.29,0,0,1,2.29,2.34,66.94,66.94,0,0,1,4.07,5.44c-1.69-.69-3.42-1.23-5.14-1.85C312.67,429.2,308.53,427.76,308.05,425.23Z" style="fill:#263238"></path><path d="M334.27,425.33c-1.09-2.59-4.32-2.3-6.37-1.26a22.54,22.54,0,0,0-8.51,7.91.12.12,0,0,0,.06.17.53.53,0,0,0,.53.66c3.67-.46,7.66-.5,11.09-2.07C333.07,429.82,335.3,427.78,334.27,425.33ZM325.41,431c-1.8.27-3.61.45-5.4.79a65.81,65.81,0,0,1,5.07-4.51,25,25,0,0,1,2.72-1.84c1.48-.82,6.86-2.05,5.08,2.27C331.91,430.07,327.56,430.65,325.41,431Z" style="fill:#263238"></path><path d="M320.65,109.34c7.88,8.13,4.51,18.61,7.55,24.74,1.85,3.75,8.63,8.15,9.66,12.37,1.71,6.93-4.21,8.82-3.27,12.59,1.32,5.34,8.29,5.58,8.75,14.15s-9.67,16.73-32,17.12-33.72-8.81-33.84-16.06,7.44-9,8.43-14.28c.64-3.4-3.68-6.2-3.33-12.53s6.69-7.81,8.06-13.09-.25-18.55,8.23-24.46S316.76,105.33,320.65,109.34Z" style="fill:#263238"></path><path d="M319.64,109.44a18.39,18.39,0,0,1,5.08,7.08,40.27,40.27,0,0,1,2.35,9,23.86,23.86,0,0,0,1.24,5.36,13.2,13.2,0,0,0,2.63,3.94c2.19,2.38,4.89,4.28,6.81,6.91s3.12,5.71,2,8.78c-.6,1.66-1.85,2.95-2.7,4.48s-1.24,3.29-.06,4.66c1,1.18,2.56,1.82,3.74,2.81a13.91,13.91,0,0,1,2.93,3.42,10.85,10.85,0,0,1,1.25,8.69c-1.93,6.75-8.74,10.07-14.93,12-.86.27-1.72.52-2.59.78-.13,0-.22-.16-.09-.2,6.23-2.13,13.45-4.62,16.36-11.09a10.14,10.14,0,0,0-.21-9,12.79,12.79,0,0,0-2.85-3.61c-1.12-1-2.46-1.67-3.6-2.63a4.06,4.06,0,0,1-1.54-3.8,10,10,0,0,1,2-4.25,8.15,8.15,0,0,0,1.83-4.5,8.87,8.87,0,0,0-1.36-4.57c-1.61-2.81-4.21-4.79-6.49-7a14.89,14.89,0,0,1-4.69-7.93c-.32-1.62-.45-3.27-.7-4.9a40.61,40.61,0,0,0-.92-4.49,20.84,20.84,0,0,0-4-8.13,12.05,12.05,0,0,0-1.68-1.67C319.49,109.5,319.57,109.39,319.64,109.44Z" style="fill:#263238"></path><path d="M277,168.89a8.33,8.33,0,0,1,1.83-3.08c.85-.9,1.86-1.64,2.79-2.45a6.4,6.4,0,0,0,2.09-2.82,6,6,0,0,0-.61-4.07,29.36,29.36,0,0,1-1.62-4,13.76,13.76,0,0,1-.46-4.19,14.27,14.27,0,0,1,3-8c.87-1.16,1.82-2.26,2.7-3.41a17.71,17.71,0,0,0,2.35-4.12c1.31-3.23,1.85-6.72,3-10a53.33,53.33,0,0,1,4.51-9.69c.05-.08.16,0,.12.08a46.19,46.19,0,0,0-4,8.77c-1,2.89-1.52,5.88-2.32,8.82a22.42,22.42,0,0,1-1.52,4.2,22.89,22.89,0,0,1-2.26,3.52c-1.72,2.29-3.48,4.56-4.16,7.4a13.62,13.62,0,0,0,.66,8.41c1,2.3,2.36,4.87,1.11,7.35-1.06,2.1-3.26,3.22-4.8,4.89a8.72,8.72,0,0,0-2.14,6.85c.62,6.3,6.53,9.94,12.31,10.78a.14.14,0,0,1,0,.28c-5-.52-10.33-3.25-12.26-8.19A10.69,10.69,0,0,1,277,168.89Z" style="fill:#263238"></path><path d="M294.9,154.82c-20.56,2.56-57.46-4-57.4-13.58,0-6.61,6.25-27.17,19.37-36.73,1.94-1.41,16.22,19.43,13.7,21.64a30.16,30.16,0,0,0-6.3,8.91c-.49,1.22,20.34,6.5,28.53,9.26C308,149.42,300.63,154.11,294.9,154.82Z" style="fill: rgb(235, 148, 129);"></path><path d="M269.15,128.78l-24-13.25s-12.51,25.81-6.26,32,40,10,53.64,8.24,11.49-7.61,2.16-11.36-28.47-9.38-28.57-9.63S269.15,128.78,269.15,128.78Z" style="fill:#261E68"></path><path d="M269.15,128.78l-24-13.25s-12.51,25.81-6.26,32,40,10,53.64,8.24,11.49-7.61,2.16-11.36-28.47-9.38-28.57-9.63S269.15,128.78,269.15,128.78Z" style="opacity:0.1"></path><path d="M242.34,135.57a8.72,8.72,0,0,1-.38-4.38,8.75,8.75,0,0,1,.38,4.38Z" style="fill:#fff"></path><path d="M270.94,147.78a7.88,7.88,0,0,1-.47-2.17,8.23,8.23,0,0,1,.09-2.21,8.43,8.43,0,0,1,.38,4.38Z" style="fill:#fff"></path><path d="M257.75,151.43a8.19,8.19,0,0,1,2.16-.47,7.92,7.92,0,0,1,2.22.1,8,8,0,0,1-2.17.47A7.85,7.85,0,0,1,257.75,151.43Z" style="fill:#fff"></path><path d="M280,142.25a8.19,8.19,0,0,1,2.16-.47,7.92,7.92,0,0,1,2.22.1,8.6,8.6,0,0,1-4.38.37Z" style="fill:#fff"></path><path d="M294.25,151.6a7.86,7.86,0,0,1-1.87-1.2,8.06,8.06,0,0,1-1.5-1.63,7.57,7.57,0,0,1,1.87,1.2A8.06,8.06,0,0,1,294.25,151.6Z" style="fill:#fff"></path><path d="M242.15,147a7.77,7.77,0,0,1-1.86-1.19,7.59,7.59,0,0,1-1.5-1.64,8.12,8.12,0,0,1,1.86,1.2A7.78,7.78,0,0,1,242.15,147Z" style="fill:#fff"></path><path d="M263.3,135.7a8.55,8.55,0,0,1-3.36-2.83,8.74,8.74,0,0,1,3.36,2.83Z" style="fill:#fff"></path><path d="M281.45,151.25a8,8,0,0,1-1.19,1.86,8.11,8.11,0,0,1-1.64,1.5,7.86,7.86,0,0,1,1.2-1.87A7.73,7.73,0,0,1,281.45,151.25Z" style="fill:#fff"></path><path d="M254.94,122.92a8.12,8.12,0,0,1-1.2,1.86,7.52,7.52,0,0,1-1.63,1.5,8,8,0,0,1,1.19-1.86A8.11,8.11,0,0,1,254.94,122.92Z" style="fill:#fff"></path><path d="M253.52,140.7a8.55,8.55,0,0,1-2.83,3.36,7.7,7.7,0,0,1,1.2-1.86A8.06,8.06,0,0,1,253.52,140.7Z" style="fill:#fff"></path><path d="M243.51,121.07c10.27,4.61,20.42,11,22.26,12,.09,0,0,.18-.08.13-1.76-1.07-14.11-7.14-22.27-12C243.33,121.16,243.41,121,243.51,121.07Z" style="fill:#263238"></path><path d="M339.43,202.94l-51.23,0-.42-15s-4.33-5.79-4-12.23c.33-6.85,13.42-24.82,14.48-25.83,4.23-4,11.2-4.35,14.62-1.49C331.17,163.81,339.43,202.94,339.43,202.94Z" style="fill:#261E68"></path><path d="M307.67,184.85a48.21,48.21,0,0,0-8,.79c-1.32.26-2.62.6-3.92,1-.65.18-1.3.34-2,.49a7.26,7.26,0,0,1-2.07.26.06.06,0,0,0,0,.11,12.92,12.92,0,0,0,2,.14,12,12,0,0,0,1.9-.24c1.34-.26,2.67-.58,4-.85,2.7-.55,5.4-1.09,8.12-1.41C307.81,185.09,307.8,184.85,307.67,184.85Z" style="fill:#263238"></path><path d="M314,188.18a49.83,49.83,0,0,0-6.54-1c-1.11-.08-2.21-.09-3.31-.07l-1.59.06c-.58,0-1.16.16-1.74.18-.06,0-.07.11,0,.11.55,0,1.1.1,1.64.14l1.65.1,3.3.21c2.2.11,4.39.25,6.59.45C314.08,188.4,314.08,188.2,314,188.18Z" style="fill:#263238"></path><polygon points="286.67 206.37 341.3 206.37 340.3 201.22 287.67 201.22 286.67 206.37" style="fill:#dbdbdb"></polygon><path d="M318.06,198.58c-1.79-1.38-30.49-1.29-31.74,0-1.61,1.63.06,14.79,1.25,15.24,2.3.88,26.71.75,28.61,0S319.81,199.94,318.06,198.58Z" style="fill:#c7c7c7"></path><path d="M312.33,204.79a7,7,0,0,0-1.83-.32c-.62-.06-1.24-.09-1.86-.12-1.25-.06-2.49-.1-3.74-.12q-3.73,0-7.47.09a70.59,70.59,0,0,0-7.43.53,3.65,3.65,0,0,0-.85.2c-.15,0-.23.35-.26.63a8.49,8.49,0,0,0,.05,1.81,15.9,15.9,0,0,0,.8,3.58,2.46,2.46,0,0,0,.38.71s.18,0,.31.06l.45,0,1.87.07,3.73.08,7.47.12h3.74l1.86,0,.94,0a1.18,1.18,0,0,0,.84-.26,4.51,4.51,0,0,0,.86-1.62,12.63,12.63,0,0,0,.46-1.81,11.49,11.49,0,0,0,.19-1.85,4.8,4.8,0,0,0-.08-.93A1.18,1.18,0,0,0,312.33,204.79Zm0,0a1.21,1.21,0,0,1,.44.8,4.8,4.8,0,0,1,.08.93,10.62,10.62,0,0,1-.16,1.86,11.8,11.8,0,0,1-.45,1.82,4.35,4.35,0,0,1-.86,1.65,1.26,1.26,0,0,1-.89.31l-.93.06-1.87.08-3.74.08c-2.49,0-5,.07-7.48.06l-3.74,0-1.87-.05-.48,0c-.17,0-.33,0-.58-.17a2.47,2.47,0,0,1-.52-.9,16.38,16.38,0,0,1-.8-3.71,8.78,8.78,0,0,1,0-1.92,1.91,1.91,0,0,1,.12-.5.72.72,0,0,1,.4-.46,4,4,0,0,1,1-.23,67,67,0,0,1,7.48-.35q3.75,0,7.48.08c1.25,0,2.49.08,3.74.15.62,0,1.24.08,1.86.14A7,7,0,0,1,312.33,204.79Z" style="fill:#a6a6a6"></path><rect x="289.9" y="206.37" width="20.38" height="0.91" transform="translate(600.17 413.64) rotate(180)" style="fill:#ebebeb"></rect><path d="M310.14,206.82c-3.33.11-6.67.08-10,.13s-6.66,0-10-.13c3.33-.11,6.66-.08,10-.12S306.81,206.71,310.14,206.82Z" style="fill:#a6a6a6"></path><path d="M310.85,210l1.7-1.15-2.19-2.53-1.08.73Zm-.39-3.1a.38.38,0,0,1-.1.53.4.4,0,0,1-.55-.09.4.4,0,0,1,.11-.56A.38.38,0,0,1,310.46,206.88Zm.28,2.31c-.12-.17,0-.49.34-.7s.66-.23.78-.06,0,.49-.34.7S310.86,209.37,310.74,209.19Z" style="fill:#ebebeb"></path><path d="M318.72,201.77l1.7-1.15-2.19-2.53-1.08.73Zm-.39-3.1a.39.39,0,0,1-.65.44.39.39,0,0,1,.11-.55A.38.38,0,0,1,318.33,198.67Zm.28,2.32c-.12-.18,0-.49.34-.7s.66-.24.78-.06,0,.49-.34.7S318.73,201.16,318.61,201Z" style="fill:#ebebeb"></path><path d="M309.29,151c-.44,1-6.63,6.63-11.26,5.48-1.5-.38.19-8.68.19-8.68l0-.65-.21-9,11.4-4.47,1.63-.56s-.11,2.46-.27,5.52c0,.14,0,.28,0,.44s0,.33,0,.5c0,.45,0,.92-.07,1.39s0,.7-.07,1.07-.07.73-.09,1.1A55.77,55.77,0,0,1,309.29,151Z" style="fill: rgb(235, 148, 129);"></path><path d="M310.75,138.63a18,18,0,0,1-12.55,8.49l-.21-9,11.4-4.47,1.63-.56S310.91,135.57,310.75,138.63Z" style="fill:#263238"></path><path d="M287.53,123.38c-3.86,15.29,4.86,19.33,8.16,20.16,3,.75,13.28,2.93,18.7-11.87s-.47-21.44-7.22-23.52S291.39,108.09,287.53,123.38Z" style="fill: rgb(235, 148, 129);"></path><path d="M291.36,121.14a8.08,8.08,0,0,0,1.1,0,1.73,1.73,0,0,0,1.12-.21.55.55,0,0,0,.14-.68,1.42,1.42,0,0,0-1.29-.61,2.09,2.09,0,0,0-1.41.45A.6.6,0,0,0,291.36,121.14Z" style="fill:#263238"></path><path d="M301.75,123.83c-.36-.12-.67-.29-1-.44a1.74,1.74,0,0,1-.94-.65.57.57,0,0,1,.14-.68,1.43,1.43,0,0,1,1.43,0,2,2,0,0,1,1.12,1A.61.61,0,0,1,301.75,123.83Z" style="fill:#263238"></path><path d="M298.86,126.38s.07.07.06.11c-.32,1-.5,2.29.36,2.89,0,0,0,.07,0,.05C298.14,129,298.4,127.31,298.86,126.38Z" style="fill:#263238"></path><path d="M300.09,125.53c1.72.33,1,3.74-.64,3.45S298.65,125.27,300.09,125.53Z" style="fill:#263238"></path><path d="M300.72,125.87c.25.26.47.66.82.78s.8-.15,1.15-.43c0,0,.06,0,.05,0-.13.66-.54,1.27-1.26,1.21s-1-.74-1-1.43C300.47,125.92,300.62,125.76,300.72,125.87Z" style="fill:#263238"></path><path d="M297.21,135c-.3.22-.6.53-1,.5a2.67,2.67,0,0,1-1.11-.44s-.07,0-.06,0a1.44,1.44,0,0,0,1.28.78,1.13,1.13,0,0,0,1-.82C297.33,135,297.25,135,297.21,135Z" style="fill:#263238"></path><path d="M293.55,130.27a23.8,23.8,0,0,0-.7,2.29c0,.07.16.14.41.21h0a3.64,3.64,0,0,0,3.73-.62.08.08,0,0,0-.09-.13,5.49,5.49,0,0,1-3.44.27c0-.22,1-2.62.9-2.65a6.73,6.73,0,0,0-1.78,0c1-3.25,2.6-6.3,3.58-9.55,0-.12-.13-.19-.18-.09a55,55,0,0,0-4.3,10.12C291.57,130.59,293.22,130.34,293.55,130.27Z" style="fill:#263238"></path><path d="M293.39,132.51a4.39,4.39,0,0,0,1.35,1.77,2,2,0,0,0,1.15.39c.89,0,1.12-.76,1.14-1.46a5,5,0,0,0-.1-1.12A5.74,5.74,0,0,1,293.39,132.51Z" style="fill:#263238"></path><path d="M294.74,134.28a2,2,0,0,0,1.15.39c.89,0,1.12-.76,1.14-1.46A2,2,0,0,0,294.74,134.28Z" style="fill:#ff9bbc"></path><path d="M289.46,123.58a3.37,3.37,0,0,1,1,0,3,3,0,0,1,.91.3,2.69,2.69,0,0,1,.8.63,2.52,2.52,0,0,1,.47.94l.14.62-.6-.23a7.11,7.11,0,0,0-1.32-.35,2.77,2.77,0,0,0-1.39.09,2,2,0,0,1,1.41-.59,3.92,3.92,0,0,1,1.55.23l-.45.39a2.33,2.33,0,0,0-.9-1.24A7.3,7.3,0,0,0,289.46,123.58Z" style="fill:#263238"></path><path d="M290.57,126.52a5.57,5.57,0,0,0,1.47-.15c.12,0,.57-.21.57-.29a3.08,3.08,0,0,0-.06-.73,1.85,1.85,0,0,1,.2.75.92.92,0,0,1-.65.49A3,3,0,0,1,290.57,126.52Z" style="fill:#263238"></path><path d="M312.72,132.41c-3.78-.89-2.54-12.82-2.37-14.29-.16.92-1,5.77-1.4,5.88a3.54,3.54,0,0,1-1.15-.46h0a10.87,10.87,0,0,0,.21-1.76c0-.27-.22.56-.57,1.58l-.66-.34a14.43,14.43,0,0,0,.37-3.74c0-.47-.56,1.55-1.35,3.25a47.56,47.56,0,0,0-9.62-3.75c-.94-.23-1.77-.38-2.5-.49.28-1.42.75-2.91.58-2.6a13.79,13.79,0,0,0-1.12,2.52l-1.1-.13c.3-2,1.9-5,1.48-4.62a14.42,14.42,0,0,0-2.93,4.56c-1.43,0-1.86.18-1.83-.18a17.2,17.2,0,0,1,7.18-9.37c5.66-3.53,15.38-2.76,19.35,5.22,0,0,3.84,3.76,3.6,8.54S314.91,132.93,312.72,132.41Z" style="fill:#263238"></path><path d="M304.8,111.78c0,1.65,2.72,3,6.07,3s6.06-1.36,6.06-3-2.73-3-6.08-3S304.79,110.13,304.8,111.78Z" style="fill:#455a64"></path><path d="M306.13,111.44c0,1.25,2.07,2.26,4.62,2.25s4.6-1,4.6-2.29-2.07-2.26-4.62-2.25S306.12,110.18,306.13,111.44Z" style="fill:#263238"></path><path d="M306.15,110.17l1-.42c-1.06-2.41-3.88-2.55-5.22-2.29l.2,1C302.22,108.46,305.17,107.92,306.15,110.17Z" style="fill:#455a64"></path><path d="M316.71,133c0-.17.71-4.11.79-4.89s-3.72-14.45-3.76-14.53l-.45.26-.49.17c.24.76,3.65,13.1,3.66,14-.07.72-.77,4.75-.77,4.79Z" style="fill:#455a64"></path><path d="M291.61,107c0,1.65,2.73,3,6.08,3s6.06-1.36,6.06-3-2.73-3-6.08-3S291.61,105.38,291.61,107Z" style="fill:#455a64"></path><path d="M293,106.78C293,108,295,109,297.59,109s4.61-1,4.6-2.29-2.07-2.26-4.62-2.25S293,105.52,293,106.78Z" style="fill:#263238"></path><path d="M310.9,131s4.19-4.31,6.19-2.74-1.69,8.2-4.43,8.74a2.67,2.67,0,0,1-3.3-2Z" style="fill: rgb(235, 148, 129);"></path><path d="M316,130.17s0,.07,0,.07c-1.94.44-3.16,2-4.12,3.61a1.48,1.48,0,0,1,2.24,0,.06.06,0,0,1-.06.09,1.66,1.66,0,0,0-1.88.28,7.93,7.93,0,0,0-1.08,1.3c-.11.15-.39,0-.3-.16l0,0C311.14,133,313.46,130,316,130.17Z" style="fill:#263238"></path><path d="M315.83,150.94c19.56,20.37,48.09,71.94,51.61,79.34,2.39,5-23.85,18.25-25,14.6-1.43-4.68-24.29-62.39-30.36-84.17C308.77,148.7,311.79,146.74,315.83,150.94Z" style="fill: rgb(235, 148, 129);"></path><path d="M341.24,241.43c.92,2.5,4,13.12,6.21,14.44s13.62,1,19.38,1,6.9-1.61,6.81-3.59S361.45,251,361.45,251s16.15,4.63,20.22,5.38,13.42,3.12,14.78-.25c.61-1.52-2-3-2-3s3.93,1.14,4.56-.81c.71-2.22-2.42-3.45-2.42-3.45s2.46.5,2.52-1.31c.12-4.05-15.24-6-15.24-6s11.76,5.73,12.14,2.42c.52-4.57-23.59-9.59-26.1-11.58a17,17,0,0,1-4-5Z" style="fill: rgb(235, 148, 129);"></path><path d="M373.55,254.33a1.77,1.77,0,0,0-.55-1.55,5,5,0,0,0-1.4-.91,19.28,19.28,0,0,0-3.3-1.07c-2.28-.58-4.61-1-6.92-1.58a28,28,0,0,1,7.11.8,12.57,12.57,0,0,1,3.4,1.3,4.56,4.56,0,0,1,1.42,1.21A1.84,1.84,0,0,1,373.55,254.33Z" style="fill:#263238"></path><path d="M394.49,253c-1.66-.41-3.3-.88-4.93-1.35s-3.26-1-4.89-1.47l-4.87-1.52c-1.62-.51-3.24-1-4.88-1.5a37.9,37.9,0,0,1,5.05.9c1.66.38,3.3.86,4.94,1.35s3.24,1,4.84,1.65S392.94,252.32,394.49,253Z" style="fill:#263238"></path><path d="M378.82,243.16a31.86,31.86,0,0,1,4.66.65A44.83,44.83,0,0,1,388,245a40.25,40.25,0,0,1,4.41,1.65,34.34,34.34,0,0,1,4.18,2.15c-1.48-.51-2.93-1.08-4.41-1.57s-2.94-1-4.42-1.46-3-.9-4.47-1.34S380.33,243.57,378.82,243.16Z" style="fill:#263238"></path><path d="M381.2,239.31a29,29,0,0,1,7.41,1.56,28.37,28.37,0,0,1,6.83,3.31c-2.39-.85-4.71-1.75-7.09-2.54S383.61,240.08,381.2,239.31Z" style="fill:#263238"></path><path d="M312.36,166.35c4.64,20,26.83,74.56,26.83,74.56l19.93-9.61,10.06-4.85S335,173,321,155.47c-1.08-1.34-2.07-2.5-3-3.46C309.31,142.74,308.78,151,312.36,166.35Z" style="fill:#261E68"></path><path d="M312.36,166.35c4.64,20,26.83,74.56,26.83,74.56l19.93-9.61,10.06-4.85S335,173,321,155.47c-1.08-1.34-2.07-2.5-3-3.46C309.31,142.74,308.78,151,312.36,166.35Z" style="opacity:0.1"></path><path d="M358.41,221.56a8.27,8.27,0,0,1-.47-2.17,7.85,7.85,0,0,1,.1-2.21,8.19,8.19,0,0,1,.47,2.16A7.92,7.92,0,0,1,358.41,221.56Z" style="fill:#fff"></path><path d="M314.91,154a8.27,8.27,0,0,1-.47-2.17,7.85,7.85,0,0,1,.1-2.21,8.57,8.57,0,0,1,.37,4.38Z" style="fill:#fff"></path><path d="M343.07,211.6a7.88,7.88,0,0,1,2.17-.47,8.23,8.23,0,0,1,2.21.09,7.83,7.83,0,0,1-2.16.48A7.92,7.92,0,0,1,343.07,211.6Z" style="fill:#fff"></path><path d="M330,184.54a8.19,8.19,0,0,1,2.16-.47,7.92,7.92,0,0,1,2.22.1,8.6,8.6,0,0,1-4.38.37Z" style="fill:#fff"></path><path d="M348,199.16a8.46,8.46,0,0,1-3.37-2.83,7.86,7.86,0,0,1,1.87,1.2A8.06,8.06,0,0,1,348,199.16Z" style="fill:#fff"></path><path d="M323.34,166.67a8.55,8.55,0,0,1-3.36-2.83,7.7,7.7,0,0,1,1.86,1.2A8.06,8.06,0,0,1,323.34,166.67Z" style="fill:#fff"></path><path d="M334.69,222.64a8.55,8.55,0,0,1-3.36-2.83,8.74,8.74,0,0,1,3.36,2.83Z" style="fill:#fff"></path><path d="M333.48,199.54a7.57,7.57,0,0,1-1.2,1.87,8.06,8.06,0,0,1-1.63,1.5,7.57,7.57,0,0,1,1.2-1.87A8.06,8.06,0,0,1,333.48,199.54Z" style="fill:#fff"></path><path d="M349.72,228.91a8.74,8.74,0,0,1-2.83,3.36,8.74,8.74,0,0,1,2.83-3.36Z" style="fill:#fff"></path><path d="M322.46,174.56a8.41,8.41,0,0,1-1.2,1.87,7.73,7.73,0,0,1-1.63,1.49,8,8,0,0,1,1.19-1.86A8.11,8.11,0,0,1,322.46,174.56Z" style="fill:#fff"></path><path d="M337.53,235c11.73-6.81,25.09-12.18,27.35-13.28.11-.06.18.12.07.17-2.28,1-16.88,8.76-27.34,13.3A.1.1,0,0,1,337.53,235Z" style="fill:#263238"></path><path d="M254.19,106.62s13.38-12.05,23.14-14.68c4.08-1.1,22-1.88,22.34,2.45.3,3.91-15.15,2.83-15.15,2.83s15.69-.29,15.19,4.5-17.8,1.23-17.8,1.23,16.13.07,14.84,4.92c-1,3.67-16.83,1.34-16.83,1.34s13.86.15,13,4c-.93,4.22-15.7,3-15.7,3-1.56,7.09-4.52,10.28-8.76,11.87C267.45,128.41,254.19,106.62,254.19,106.62Z" style="fill: rgb(235, 148, 129);"></path><path d="M279.08,97c1.85-.1,3.71-.21,5.55-.15s3.69.19,5.52.43a31.54,31.54,0,0,1,7,1.59,67.68,67.68,0,0,0-12.59-1.51c-1.84-.07-3.68-.22-5.52-.29C279,97,279,97,279.08,97Z" style="fill:#263238"></path><path d="M278.73,103.63c2.36,0,4.7-.14,7.06-.06s4.57.35,6.9.59c.18,0,.12.11-.07.1-2.34-.15-4.52-.1-6.86-.22s-4.69-.32-7-.36C278.69,103.68,278.7,103.63,278.73,103.63Z" style="fill:#263238"></path><path d="M277.4,109.29a52.15,52.15,0,0,1,10.8.73c.18,0,.08.13-.11.12-3.58-.31-6.39-.58-10.68-.73C277.34,109.41,277.33,109.29,277.4,109.29Z" style="fill:#263238"></path></g><g id="freepik--character-1--inject-3"><path d="M173,203.81c-.56.92-55.65,10.17-58.38,9.74l-.38-.11c-3.45-1.13-20.25-13.15-21.52-14.18-3.15-2.53,6-24.12,9.23-27.9,2.18-2.52,6.62-3.94,6.62-3.94s8.3-38.59,15.26-47.31c1.75-2.19,36-7.15,42.49-5.1,2.77.88,10,6.63,10.28,7.78h0C177,124.49,173.54,202.88,173,203.81Z" style="fill:#455a64"></path><path d="M173,203.81c-.56.92-55.65,10.17-58.38,9.74l-.38-.11c3.55-15,20.27-85.39,20.92-85.91s33.51-4.34,41.44-4.73C177,124.49,173.54,202.88,173,203.81Z" style="fill:#37474f"></path><path d="M177.83,111.32c-.24,5-2,9.05-4,9.44v0l-46.45,4.09.88-19.3,45.35-4a1.7,1.7,0,0,1,.7-.12,1.07,1.07,0,0,1,.25,0h.16v0C176.68,102.15,178.05,106.33,177.83,111.32Z" style="fill:#261E68"></path><path d="M177.83,111.32c-.24,5-2,9.05-4,9.44v0l-46.45,4.09.88-19.3,45.35-4a1.7,1.7,0,0,1,.7-.12,1.07,1.07,0,0,1,.25,0h.16v0C176.68,102.15,178.05,106.33,177.83,111.32Z" style="opacity:0.1"></path><ellipse cx="127.8" cy="115.25" rx="9.66" ry="3.98" transform="translate(6.82 237.63) rotate(-87.37)" style="fill:#261E68"></ellipse><path d="M233.17,443.79c-2.33.76-71.31-.11-73.82-1.75-1-.61,3.88-65.5,3.88-65.5l44.57.44-4.74,43.42s25.35,11.73,27.93,13.84S235.51,443.05,233.17,443.79Z" style="fill:#ad6359"></path><path d="M233.17,443.79c-2.33.76-71.31-.11-73.82-1.75-.45-.28.34-14.21,1.32-29.14h43.21l-.82,7.49s25.36,11.74,27.93,13.84S235.52,443.05,233.17,443.79Z" style="fill:#fff"></path><path d="M233.93,444.74c-2.46.8-72.1.15-74.76-1.58-1-.63.45-23.6.45-23.73h43.09l0,.77s26.77,12.27,29.49,14.47S236.39,444,233.93,444.74Z" style="fill:#261E68"></path><path d="M233.74,442c-11.83-.4-59.61-.9-71.34-.4-.09,0-.09.07,0,.07,11.73.66,59.5.77,71.34.52C234,442.2,234,442,233.74,442Z" style="fill:#263238"></path><path d="M207,420.78c-4.65-.91-10.36-.25-13.95,3-.14.12,0,.32.2.27a65.9,65.9,0,0,1,13.72-2.72A.3.3,0,0,0,207,420.78Z" style="fill:#263238"></path><path d="M210.31,422.84c-4.65-.91-10.36-.25-13.95,3-.14.13,0,.33.2.28a64.76,64.76,0,0,1,13.72-2.72A.3.3,0,0,0,210.31,422.84Z" style="fill:#263238"></path><path d="M213.65,424.9c-4.65-.92-10.35-.25-13.94,3-.14.13,0,.32.19.28a65.37,65.37,0,0,1,13.73-2.73A.29.29,0,0,0,213.65,424.9Z" style="fill:#263238"></path><path d="M224.89,431a10,10,0,0,0-7.42,3,9.63,9.63,0,0,0-2.79,6.61c0,.08.14.08.15,0a11.49,11.49,0,0,1,10.06-9.45A.08.08,0,0,0,224.89,431Z" style="fill:#263238"></path><path d="M167,430.42c-5.56,0-5.57,8.65,0,8.65S172.54,430.42,167,430.42Z" style="fill:#fff"></path><path d="M207.56,418.56h-48s8-111.28,7.73-112.78c-.48-2.5-3.32-13.85-7.09-28.67-1.18-4.64-2.46-9.61-3.78-14.77-3.58-13.94-7.52-29.18-11-42.44-5.15-19.86-9.18-35.3-9.18-35.3H177s4.74,15,10.71,34.58c9.73,31.77,22.74,75.49,24,86.12C213.26,318.18,207.56,418.56,207.56,418.56Z" style="fill:#455a64"></path><path d="M205.33,409.81c-7.31-.15-5.21-.21-12.53-.28-3.58,0-27.11-.24-30.46.32-.07,0-.07.13,0,.15,3.35.55,26.88.34,30.46.31,7.32-.07,5.22-.13,12.53-.28A.11.11,0,0,0,205.33,409.81Z" style="fill:#263238"></path><path d="M143.69,190.12l7.46,26.27,7.28,26.32c2.42,8.77,4.76,17.57,7.09,26.37s4.64,17.6,6.79,26.46c.52,2.22,1.05,4.43,1.48,6.68.12.56.2,1.14.3,1.71,0,.32.06.66,0,1l-.06.85-6.38,96.93,0,.29-.54-.33,5.88-97,.06-.85c0-.27,0-.49,0-.75-.1-.55-.18-1.09-.3-1.65-.43-2.21-1-4.42-1.49-6.63-4.27-17.69-9-35.26-13.64-52.87Z" style="fill:#263238"></path><path d="M176,184.6c-2.82,21.85-13,58.13-17,87.85-9.17-36-22.73-87.85-22.73-87.85Z" style="fill:#263238"></path><path d="M78,443.45c2.36.73,60.29,1,62.8-.69,1-.62,1.31-10.39,1.38-22.2v-.37c0-2.44,5.62-43.36,5.62-43.36l-43.76.9L99,420.7l0,.74s-16.34,10.24-18.91,12.38S75.62,442.72,78,443.45Z" style="fill:#ad6359"></path><path d="M143,412.9c-.49,3.91-.81,6.7-.81,7.29v.37c-.08,11.81-.42,21.58-1.38,22.2-2.51,1.68-60.45,1.43-62.81.69s-.45-7.51,2.11-9.63S99,421.43,99,421.43l0-.73.92-7.8Z" style="fill:#fff"></path><path d="M75.11,444.74c2.46.8,64.77.15,67.42-1.58,1-.63-.45-23.6-.45-23.73H99l0,.77s-19.43,12.27-22.15,14.47S72.65,444,75.11,444.74Z" style="fill:#261E68"></path><path d="M75.3,442c11.84-.4,52.27-.9,64-.4.1,0,.1.07,0,.07-11.72.66-52.16.77-64,.52C75.05,442.2,75.05,442,75.3,442Z" style="fill:#263238"></path><path d="M102.5,420.88c5.9-1.63,13.24-1.62,18,1.62.19.12,0,.37-.23.34a92.6,92.6,0,0,0-17.74-1.3A.33.33,0,0,1,102.5,420.88Z" style="fill:#263238"></path><path d="M98.34,423.63c5.9-1.63,13.24-1.62,18,1.62.19.13,0,.37-.23.34a92.6,92.6,0,0,0-17.74-1.3A.33.33,0,0,1,98.34,423.63Z" style="fill:#263238"></path><path d="M94.17,426.38c5.91-1.63,13.25-1.62,18,1.62.19.13,0,.37-.23.34A92.6,92.6,0,0,0,94.24,427,.33.33,0,0,1,94.17,426.38Z" style="fill:#263238"></path><path d="M80.61,433.75a16.16,16.16,0,0,1,13-.89c3.44,1.35,7,3.85,8.75,7.65,0,.11-.14.21-.21.1-4.5-6.55-14-9.59-21.38-6.63A.13.13,0,0,1,80.61,433.75Z" style="fill:#263238"></path><path d="M138.25,428.21c4.36,0,4.36,8.65,0,8.65S133.89,428.21,138.25,428.21Z" style="fill:#fff"></path><path d="M176,184.6s-6.17,37.59-6.59,38.8c0,0-2.29,1.08-6.42,3l-16.86,192-48.22.19,25.47-234Z" style="fill:#455a64"></path><path d="M144.46,409.79c-7.36-.12-5.25-.19-12.61-.23-3.61,0-27.3-.12-30.66.45a.08.08,0,0,0,0,.15c3.37.54,27.06.23,30.66.18,7.37-.1,5.25-.15,12.62-.33A.11.11,0,0,0,144.46,409.79Z" style="fill:#263238"></path><path d="M171,223a82.61,82.61,0,0,0-13.11,6.11.15.15,0,0,0,.12.27c4.42-1.9,8.92-3.72,13.23-5.85A.29.29,0,0,0,171,223Z" style="fill:#263238"></path><path d="M172.45,192.72c0-.15-.28-.19-.28,0,0,5.24-.3,9.86-.74,14.76-.21,2.27-2,14.85-6,13.93-.66-.15-1-.8-1.1-1.8a15.46,15.46,0,0,1,.52-3.86c.44-2.63.79-5.27,1-7.93a71.76,71.76,0,0,0-.17-14.87.13.13,0,0,0-.25,0,135.65,135.65,0,0,1-1.2,20.54c-.49,3.27-2.14,8.19,1.28,8.69s5.74-7.73,6.16-10A75.48,75.48,0,0,0,172.45,192.72Z" style="fill:#263238"></path><path d="M165.55,221.73a23.42,23.42,0,0,0-.89,2.6,6.11,6.11,0,0,0-.36,2.15c0,.13.2.15.27.05a7.62,7.62,0,0,0,.92-2.08c.3-.81.61-1.61.89-2.42A.44.44,0,0,0,165.55,221.73Z" style="fill:#263238"></path><polygon points="161.99 231.21 159.41 253.27 156.72 275.31 151.17 319.38 141.32 405.42 150.15 319.25 155.93 275.21 158.91 253.2 161.99 231.21" style="fill:#263238"></polygon><path d="M126.44,217.48c3.73-.37,7.57-.32,11-2s5.75-5,7.54-8.36a27.6,27.6,0,0,0,2.48-6.57c0-.1.18-.07.18,0a18.44,18.44,0,0,1-1.52,6.19,27.68,27.68,0,0,1-3,5.49,13.32,13.32,0,0,1-4.26,4,14.47,14.47,0,0,1-5.59,1.69,31.21,31.21,0,0,1-6.9,0A.22.22,0,0,1,126.44,217.48Z" style="fill:#263238"></path><path d="M163.32,140.4c2.29,10.25,11.62,40.85,21.36,44.71,6.39,2.52,32.62,7.47,39.42,3.37,2.66-1.6,3-23.88-.69-23.7s-25.63-.52-28.14-1.72-18.54-27.2-25-34.07C159.15,117.15,162.09,134.88,163.32,140.4Z" style="fill:#ad6359"></path><path d="M186.06,148.69l-18.67,16.73s-6.78-26.72-6.55-35.15c.26-9.47,5-7.27,11.3-.78S186.06,148.69,186.06,148.69Z" style="fill:#261E68"></path><path d="M182.75,145.94c-.73.48-6.59,5.65-7.84,6.8s-6.4,5.81-7.6,7.1c-.05.06,0,.15.08.1,1.41-1,6.62-5.72,7.92-6.87s7-6.39,7.53-7C182.89,146,182.8,145.91,182.75,145.94Z" style="fill:#263238"></path><path d="M183.45,151l-16.06,14.4s-6.77-26.73-6.54-35.15c.16-5.92,2.09-7.29,5-5.89C169.91,130.45,177.74,142.25,183.45,151Z" style="opacity:0.1"></path><path d="M185.67,205.64l-66.61,2.85c-.92-1.14,7.27-43.62,14.09-59.89,8.74-20.87,13.74-22.79,16.73-24.06,3.82-1.62,14-1.45,15.68-.77,1.92.77,7.11,10.12,9.67,17.61C180.38,156.43,186.58,204.65,185.67,205.64Z" style="fill:#261E68"></path><path d="M184.46,191.43l-63.34,2.9c.25-1.27.51-2.61.79-4l62-2.84Q184.22,189.54,184.46,191.43Zm.45,3.76-64.5,2.95c-.27,1.45-.5,2.78-.69,4l65.62-3C185.22,197.94,185.08,196.62,184.91,195.19Z" style="opacity:0.1"></path><path d="M164.57,136.06c-3.77.35-9.25-6.11-11.09-11-.12-.33.82-3.53,1.77-7.48.57-2.39,1.14-5.07,1.49-7.55.07-.51,15,6,15,6a39.58,39.58,0,0,0-2.85,9.32,5.16,5.16,0,0,0,0,1v.17C168.94,128.53,168.22,135.72,164.57,136.06Z" style="fill:#ad6359"></path><path d="M157.69,110.25c.13,4.3,1.32,14.81,9.6,16.17a10.5,10.5,0,0,0,1.6.14.57.57,0,0,0,0-.18,6,6,0,0,1,0-1,40.06,40.06,0,0,1,2.86-9.33S161,111.34,157.69,110.25Z" style="fill:#263238"></path><path d="M160,90.39c-3.16,4.89-4.75,21.19-1.92,25.74,4.11,6.58,13,9.64,19.17,4.2,6-5.26,7.65-26.54,4.29-30.9C176.61,83,164.71,83.15,160,90.39Z" style="fill:#ad6359"></path><path d="M173.11,104.58s-.09,0-.1.08c-.12,1.1-.45,2.34-1.49,2.55,0,0,0,.07,0,.07C172.75,107.28,173.17,105.64,173.11,104.58Z" style="fill:#263238"></path><path d="M172.3,103.3c-1.74-.39-2.38,3.11-.78,3.47S173.76,103.62,172.3,103.3Z" style="fill:#263238"></path><path d="M178.85,105.66s.07.07.06.11c-.23,1.08-.32,2.35.59,2.89,0,0,0,.07,0,.06C178.32,108.33,178.45,106.64,178.85,105.66Z" style="fill:#263238"></path><path d="M180,104.7c1.77.2,1.26,3.72-.38,3.54S178.54,104.55,180,104.7Z" style="fill:#263238"></path><path d="M171.21,101.44a11.82,11.82,0,0,0,1.45-.23,2.37,2.37,0,0,0,1.43-.51.75.75,0,0,0,0-.92,1.87,1.87,0,0,0-1.81-.53,2.72,2.72,0,0,0-1.77.88A.8.8,0,0,0,171.21,101.44Z" style="fill:#263238"></path><path d="M181.7,103.19a13.2,13.2,0,0,1-1.32-.62,2.35,2.35,0,0,1-1.23-.88.75.75,0,0,1,.21-.9,1.88,1.88,0,0,1,1.89,0,2.77,2.77,0,0,1,1.46,1.34A.81.81,0,0,1,181.7,103.19Z" style="fill:#263238"></path><path d="M169.58,114.27c.21.3.41.7.79.8a2.79,2.79,0,0,0,1.22-.06s.07,0,0,.07a1.5,1.5,0,0,1-1.49.33,1.15,1.15,0,0,1-.67-1.11C169.46,114.23,169.55,114.22,169.58,114.27Z" style="fill:#263238"></path><path d="M171.32,111.23a3.77,3.77,0,0,0,2.16,2.1,5,5,0,0,0,1.32.31,1.15,1.15,0,0,0,.26,0h.24a.29.29,0,0,0,.27-.2h0s0-.07,0-.11h0v-.1c.18-.83.33-2.11.33-2.11.28.21,1.71,1.19,1.76.75a56,56,0,0,0,.64-11.44c0-.12-.19-.13-.2,0-.58,3.49-.53,7.06-1.05,10.58a6.66,6.66,0,0,0-1.65-.85c-.12,0-.25,2.49-.36,2.86l0,0a5.19,5.19,0,0,1-3.6-1.89C171.37,111.07,171.27,111.13,171.32,111.23Z" style="fill:#263238"></path><path d="M174.38,113.18a4.54,4.54,0,0,1-2,.95,2,2,0,0,1-1.21-.2c-.8-.42-.64-1.22-.33-1.85a5.09,5.09,0,0,1,.62-1A5.76,5.76,0,0,0,174.38,113.18Z" style="fill:#263238"></path><path d="M172.33,114.13a2,2,0,0,1-1.21-.2c-.8-.42-.64-1.22-.33-1.85A2.06,2.06,0,0,1,172.33,114.13Z" style="fill:#ff9bbc"></path><path d="M157.13,100.33c1.13-.27,3.78-3.18,4.93-4.35s2.56-7.83,2.92-9.82a10.68,10.68,0,0,0-4.71,3.78C158.9,91.91,157.75,96,157.13,100.33Z" style="fill:#263238;opacity:0.2"></path><path d="M176.82,93.93a5.23,5.23,0,0,1-5,.95,5.35,5.35,0,0,1-3.53-3.83,0,0,0,1,0-.08,0,5.27,5.27,0,0,0,3.47,4.21A5.41,5.41,0,0,0,176.91,94,.07.07,0,0,0,176.82,93.93Z" style="fill:#263238"></path><path d="M173.63,80.26a8.28,8.28,0,0,0-7.48,2.61,5.89,5.89,0,0,0-1.2,3.69s.11.06.11,0a6.45,6.45,0,0,1,4-5.24,8.32,8.32,0,0,1,7.4.35,5.3,5.3,0,0,1,2.41,2.71c0,.12.28.08.25,0C178.6,82.34,176.35,80.66,173.63,80.26Z" style="fill:#263238"></path><path d="M189.93,89.69a6.64,6.64,0,0,0-2.22-4c-1.64-1.45-3.75-1.64-5.85-1.77-.05,0-.06.08,0,.08a9.27,9.27,0,0,1,5.06,1.46,6.59,6.59,0,0,1,2.47,3.66,6.41,6.41,0,0,1-3.95,7.42,6.49,6.49,0,0,1-5.16-.34c-.06,0-.12.06-.06.09a6.56,6.56,0,0,0,9.71-6.58Z" style="fill:#263238"></path><path d="M158.85,92.81s-1.92-5.85,1-8.54c1.65-1.52,6.07-.52,6.07-.52a8.18,8.18,0,0,1,5.74-2.52c3.89-.21,8,2.75,8,2.75s3.91-1.42,6.9,1.06c4.18,3.45,2.38,10.42-2.69,11.88-3.55,1-7.5-2.65-7.5-2.65-.44,0-5.28,1.87-7.91-2.62,0,0-3.11,1.93-5.24-.17A4,4,0,0,1,158.85,92.81Z" style="fill:#263238"></path><path d="M159.74,104s-2.19-6-4.81-5.31-1.89,8.65.53,10.36a2.84,2.84,0,0,0,4-.51Z" style="fill:#ad6359"></path><path d="M155.2,100.93s-.07,0,0,.07c1.69,1.26,2.22,3.27,2.43,5.26a1.55,1.55,0,0,0-2.14-1c-.06,0,0,.11,0,.12a1.72,1.72,0,0,1,1.7,1.07,8.37,8.37,0,0,1,.49,1.73c0,.19.37.18.35,0v0C158.69,105.7,157.71,101.85,155.2,100.93Z" style="fill:#263238"></path><path d="M142.21,129.37c-21.36,13-44.2,40.9-42.05,49.26,2.39,9.31,26.53-6,26.79-7.48.2-1.08,12.85-18.67,22.37-35.37C158.12,120.36,147.49,126.16,142.21,129.37Z" style="fill:#ad6359"></path><path d="M139.94,156.74l-23.16-9.61S138,129.47,145.64,126c8.66-3.86,8.75,1.41,5.6,9.86S139.94,156.74,139.94,156.74Z" style="fill:#261E68"></path><path d="M141,152.57c-.75-.45-8-3.51-9.52-4.14s-8-3.26-9.69-3.77a.06.06,0,1,0,0,.11c1.55.82,8,3.49,9.61,4.17s8.78,3.53,9.62,3.74C141,152.7,141,152.6,141,152.57Z" style="fill:#263238"></path><path d="M137,155.49c1,.33,2.05.68,3.07,1l-.26.08,2.38-4.06,2.41-4c1.6-2.7,3.22-5.38,4.74-8.13a40.51,40.51,0,0,1-1.89,4.33c-.69,1.42-1.44,2.8-2.22,4.16q-2.35,4.1-5.06,8L140,157l-.15-.07Q138.39,156.26,137,155.49Z" style="fill:#263238"></path><path d="M146.25,146.3a9.6,9.6,0,0,1,1.26-1.73,11.38,11.38,0,0,1,1.54-1.48,6.39,6.39,0,0,1-1.17,1.81A7.32,7.32,0,0,1,146.25,146.3Z" style="fill:#263238"></path><path d="M145.55,124.34c-.89-.86,4.64-1.53,6.11-.64s8.23,13.79,7.59,31.23S123,189.77,121.39,187.32a5.2,5.2,0,0,1,.29-4.69c1.14-1.49,27.08-14.78,28.72-25.71C151.85,147.2,149.36,128,145.55,124.34Z" style="fill:#263238"></path><polygon points="215.74 201.48 218.45 168.65 225.42 139.78 205.19 141.54 190.5 137.02 174.69 140.19 156.15 134.01 158.51 165.71 152.93 196.82 166.86 201.76 183.98 198.3 197.8 204.34 215.74 201.48" style="fill:#ebebeb"></polygon><polygon points="197.8 204.34 205.19 141.54 190.5 137.02 183.98 198.3 197.8 204.34" style="fill:#dbdbdb"></polygon><polygon points="166.86 201.76 174.69 140.19 156.15 134.01 158.51 165.71 152.93 196.82 166.86 201.76" style="fill:#dbdbdb"></polygon><path d="M100.28,179.33c2.26,4.1,10.09,9.14,37.27,11.94,3.77.38,11.8-26.49,7.8-27.11-5-.78-22-1.74-23.46-1.63C111.06,163.41,98,175.24,100.28,179.33Z" style="fill:#ad6359"></path><path d="M175.89,169.72a4.23,4.23,0,0,1-2,4.4,6.25,6.25,0,0,1,1.79,3.86c.11,2.57-3.89,3.87-3.89,3.87a7.63,7.63,0,0,1,1.24,4.37c-.15,2.47-4,4.35-4,4.35a6.8,6.8,0,0,1-1.33,4.54c-2.74,3.37-9.33,2.55-13.52,2.08s-15.64-5.76-17.92-6.55L140.68,164s17.86-3.49,22.71-2.23C167.48,162.82,175.15,166.51,175.89,169.72Z" style="fill:#ad6359"></path><path d="M173.78,173.66c-4.07-2.17-8.57-3-13-4.12-.1,0-.14.13,0,.15,4.42,1.05,8.59,3,13,4.18A.11.11,0,0,0,173.78,173.66Z" style="fill:#263238"></path><path d="M171.77,181.48a12.07,12.07,0,0,0-3-.81c-1.09-.22-2.19-.41-3.29-.59-2.2-.36-4.42-.66-6.63-.91-.1,0-.14.14,0,.16,2.19.36,4.38.75,6.56,1.2,1.09.23,2.18.46,3.27.71a14.92,14.92,0,0,0,3.1.54A.16.16,0,0,0,171.77,181.48Z" style="fill:#263238"></path><path d="M169,190.56a8.18,8.18,0,0,0-2.78-.59l-3-.44c-2-.31-4-.62-6-1a.08.08,0,1,0,0,.15c2,.39,4.05.81,6.08,1.19l3,.53a7.83,7.83,0,0,0,2.76.25A.05.05,0,0,0,169,190.56Z" style="fill:#263238"></path><path d="M142.08,163.72c-2.5-.1-5-.26-7.47-.41s-5-.33-7.44-.41a31.83,31.83,0,0,0-7.37.26,66.14,66.14,0,0,0-7.27,1.62,38.6,38.6,0,0,1,7.16-2.23,29.15,29.15,0,0,1,7.51-.45c2.5.14,5,.32,7.47.6S139.62,163.29,142.08,163.72Z" style="fill:#263238"></path><path d="M224,157.52c1.64,3.82,6,8.65,6.2,11.73a3.53,3.53,0,0,1-2.11,3.66s3,1.64,2.77,4.48c-.12,1.45-2.55,2.54-2.55,2.54a4.23,4.23,0,0,1,2,3.93c-.28,2-2.68,2.78-2.68,2.78s1.62,2.42.67,4.35c-1.91,3.94-19.21,3.28-21.64-3.19-1.14-3,3.08-2.63,3.08-2.63s-5.93-2-5.88-5.59,5.49-2.73,5.49-2.73-5.73-2-5.31-5.71,5.74-2.08,5.74-2.08-3.75-2.75-2.78-5.51c1.6-4.55,8.66,1.52,12.5.76l2.33-6.19Z" style="fill:#ad6359"></path><path d="M227.27,163.1c-1.24-3.75,3.52-8.14,2.85-11.9-.9-5.08-6.76-.35-8.3,6.92l-.2,5.86Z" style="fill:#ad6359"></path><path d="M227.26,186.82c.06,0,.07.08,0,.09a30,30,0,0,1-17.78-1.73c-.18-.08-.13-.4.09-.35A61.19,61.19,0,0,0,227.26,186.82Z" style="fill:#263238"></path><path d="M228.4,180c.07,0,.07.11,0,.12A28.1,28.1,0,0,1,209.13,177c-.2-.12-.26-.43,0-.31C213.18,178.74,222.81,180.24,228.4,180Z" style="fill:#263238"></path><path d="M209.42,168.67c5.75,3.17,11.94,4.18,18.44,4.3.09,0,.07.13,0,.14-3.19.81-7.33.3-10.52-.37a17.26,17.26,0,0,1-8-3.87C209.22,168.79,209.3,168.6,209.42,168.67Z" style="fill:#263238"></path></g><g id="freepik--Suitcase--inject-3"><rect x="395.82" y="261.89" width="4.1" height="61.1" transform="translate(795.74 584.87) rotate(180)" style="fill:#dbdbdb"></rect><rect x="355.12" y="261.89" width="4.1" height="61.1" transform="translate(714.34 584.87) rotate(180)" style="fill:#dbdbdb"></rect><rect x="394.22" y="257.28" width="7.1" height="9.42" transform="translate(795.53 523.98) rotate(180)" style="fill:#263238"></rect><rect x="353.62" y="257.28" width="7.1" height="9.42" transform="translate(714.34 523.98) rotate(180)" style="fill:#263238"></rect><polygon points="353.62 254.89 353.62 262 363.8 262 365.79 263.42 389.15 263.42 391.14 262 401.31 262 401.31 254.89 391.14 254.89 389.15 256.31 365.79 256.31 363.8 254.89 353.62 254.89" style="fill:#263238"></polygon><rect x="332.67" y="322.98" width="89.7" height="127.32" transform="translate(755.04 773.29) rotate(180)" style="fill:#261E68"></rect><rect x="332.67" y="322.98" width="89.7" height="127.32" transform="translate(755.04 773.29) rotate(180)" style="opacity:0.1"></rect><rect x="342.51" y="332.83" width="70.02" height="107.62" transform="translate(755.04 773.29) rotate(180)" style="fill:#261E68"></rect><g style="opacity:0.1"><path d="M404.86,337.41c-.19,8.21-.28,16.41-.35,24.62l-.11,24.61.11,24.62.12,12.31.23,12.3.23-12.3.13-12.31.1-24.62-.1-24.61C405.14,353.82,405.05,345.62,404.86,337.41Z"></path><path d="M395.8,337.41c-.19,8.21-.28,16.41-.35,24.62l-.11,24.61.1,24.62.13,12.31.23,12.3.23-12.3.12-12.31.11-24.62L396.15,362C396.08,353.82,396,345.62,395.8,337.41Z"></path><path d="M386.74,337.41c-.19,8.21-.28,16.41-.36,24.62l-.1,24.61.1,24.62.13,12.31.23,12.3.22-12.3.13-12.31.11-24.62L387.09,362C387,353.82,386.93,345.62,386.74,337.41Z"></path><path d="M377.67,337.41c-.19,8.21-.28,16.41-.35,24.62l-.11,24.61.11,24.62.13,12.31.22,12.3.23-12.3.13-12.31.11-24.62L378,362C378,353.82,377.86,345.62,377.67,337.41Z"></path><path d="M368.61,337.41c-.19,8.21-.28,16.41-.35,24.62l-.11,24.61.11,24.62.13,12.31.22,12.3.23-12.3.13-12.31.1-24.62L369,362C368.89,353.82,368.8,345.62,368.61,337.41Z"></path><path d="M359.55,337.41c-.19,8.21-.28,16.41-.35,24.62l-.11,24.61.1,24.62.13,12.31.23,12.3.23-12.3.12-12.31.11-24.62L359.9,362C359.83,353.82,359.74,345.62,359.55,337.41Z"></path><path d="M350.49,337.41c-.19,8.21-.28,16.41-.36,24.62l-.1,24.61.1,24.62.13,12.31.23,12.3.22-12.3.13-12.31.11-24.62L350.84,362C350.77,353.82,350.68,345.62,350.49,337.41Z"></path></g><polygon points="422.37 440.5 405.48 440.5 398.72 450.31 422.37 450.31 422.37 440.5" style="fill:#263238"></polygon><polygon points="332.67 440.5 349.56 440.5 356.32 450.31 332.67 450.31 332.67 440.5" style="fill:#263238"></polygon><polygon points="422.37 352.45 427.09 351.53 427.09 340.96 422.37 340.04 422.37 352.45" style="fill:#263238"></polygon><polygon points="422.37 433.25 427.09 432.32 427.09 421.76 422.37 420.84 422.37 433.25" style="fill:#263238"></polygon><path d="M324.88,386.64c0,19.36,4.71,31.24,4.71,31.24h3.08V400h-3.9V373.33h3.9V355.41h-3.08S324.88,367.29,324.88,386.64Z" style="fill:#263238"></path><path d="M327.69,411.46a55.17,55.17,0,0,0,1.9,6.42h3.08v-6.42Z" style="fill:#dbdbdb"></path><path d="M327.69,361.83h5v-6.42h-3.08A54.36,54.36,0,0,0,327.69,361.83Z" style="fill:#dbdbdb"></path><path d="M377.06,316.12c-19.36,0-23.84,4.71-23.84,4.71V323h11.45v-3h24.78v3h12.38v-2.15S396.41,316.12,377.06,316.12Z" style="fill:#263238"></path><polygon points="411.74 458.17 415.91 458.17 418.69 450.31 409.66 450.31 412.24 454.24 411.74 458.17" style="fill:#263238"></polygon><path d="M407.86,460.55a5.76,5.76,0,1,0,5.76-5.76A5.76,5.76,0,0,0,407.86,460.55Z" style="fill:#37474f"></path><path d="M410.47,460.55a3.15,3.15,0,1,0,3.15-3.15A3.15,3.15,0,0,0,410.47,460.55Z" style="fill:#dbdbdb"></path><path d="M413.55,458.64c0,.45.06.82.12.82s.13-.37.13-.82-.06-.82-.13-.82S413.55,458.19,413.55,458.64Z" style="fill:#263238"></path><path d="M414.92,459.15c-.32.32-.54.62-.49.67s.34-.17.66-.49.54-.62.5-.67S415.24,458.83,414.92,459.15Z" style="fill:#263238"></path><path d="M415.52,460.48c-.45,0-.82.06-.82.13s.37.12.82.12.82-.06.82-.12S416,460.48,415.52,460.48Z" style="fill:#263238"></path><path d="M415,461.85c-.32-.32-.62-.54-.66-.49s.17.34.49.66.62.54.66.5S415.33,462.17,415,461.85Z" style="fill:#263238"></path><ellipse cx="413.56" cy="462.45" rx="0.12" ry="0.82" style="fill:#263238"></ellipse><path d="M412.31,461.94c.32-.32.54-.62.5-.66s-.35.17-.67.49-.54.62-.49.66S412,462.26,412.31,461.94Z" style="fill:#263238"></path><ellipse cx="411.71" cy="460.49" rx="0.82" ry="0.12" style="fill:#263238"></ellipse><path d="M412.22,459.24c.32.32.62.54.67.5s-.18-.35-.5-.67-.61-.54-.66-.49S411.9,458.92,412.22,459.24Z" style="fill:#263238"></path><polygon points="343.31 458.17 339.13 458.17 336.36 450.31 345.38 450.31 342.8 454.24 343.31 458.17" style="fill:#263238"></polygon><path d="M347.18,460.55a5.76,5.76,0,1,1-5.76-5.76A5.76,5.76,0,0,1,347.18,460.55Z" style="fill:#37474f"></path><path d="M344.57,460.55a3.15,3.15,0,1,1-3.15-3.15A3.15,3.15,0,0,1,344.57,460.55Z" style="fill:#dbdbdb"></path><ellipse cx="341.37" cy="458.64" rx="0.12" ry="0.82" style="fill:#263238"></ellipse><path d="M340.12,459.15c.32.32.54.62.49.67s-.34-.17-.66-.49-.54-.62-.49-.67S339.8,458.83,340.12,459.15Z" style="fill:#263238"></path><path d="M339.52,460.48c.45,0,.82.06.82.13s-.37.12-.82.12-.82-.06-.82-.12S339.06,460.48,339.52,460.48Z" style="fill:#263238"></path><path d="M340,461.85c.32-.32.62-.54.67-.49s-.18.34-.5.66-.62.54-.66.5S339.71,462.17,340,461.85Z" style="fill:#263238"></path><ellipse cx="341.48" cy="462.45" rx="0.12" ry="0.82" style="fill:#263238"></ellipse><path d="M342.73,461.94c-.32-.32-.54-.62-.5-.66s.35.17.67.49.54.62.49.66S343.05,462.26,342.73,461.94Z" style="fill:#263238"></path><ellipse cx="343.33" cy="460.49" rx="0.82" ry="0.12" style="fill:#263238"></ellipse><path d="M342.82,459.24c-.32.32-.62.54-.67.5s.18-.35.5-.67.61-.54.66-.49S343.14,458.92,342.82,459.24Z" style="fill:#263238"></path></g></svg>